<?xml version="1.0" encoding="utf-8"?>
<!-- Generator: Adobe Illustrator 28.3.0, SVG Export Plug-In . SVG Version: 6.00 Build 0)  -->
<svg version="1.1" id="Layer_1" xmlns="http://www.w3.org/2000/svg" xmlns:xlink="http://www.w3.org/1999/xlink" x="0px" y="0px"
	 viewBox="0 0 960 720" style="enable-background:new 0 0 960 720;" xml:space="preserve">
<style type="text/css">
	.st0{clip-path:url(#SVGID_00000015334840387183015070000013640742451138126243_);}
	.st1{fill-rule:evenodd;clip-rule:evenodd;fill-opacity:0;}
	.st2{fill-rule:evenodd;clip-rule:evenodd;fill:#FFE599;}
	.st3{fill:none;stroke:#000000;stroke-linejoin:round;stroke-miterlimit:10;}
	.st4{fill-rule:evenodd;clip-rule:evenodd;fill:#B6D7A8;}
	.st5{fill-rule:evenodd;clip-rule:evenodd;fill:#EA9999;}
	.st6{font-family:'ArialMT';}
	.st7{font-size:18px;}
</style>
<g>
	<defs>
		<rect id="SVGID_1_" width="960" height="720"/>
	</defs>
	<clipPath id="SVGID_00000008850598715832477170000005823665000621377979_">
		<use xlink:href="#SVGID_1_"  style="overflow:visible;"/>
	</clipPath>
	<g style="clip-path:url(#SVGID_00000008850598715832477170000005823665000621377979_);">
		<path class="st1" d="M0,0h960v720H0V0z"/>
		<path class="st2" d="M23.2,343.7L23.2,343.7c0-171.9,143.2-311.2,319.9-311.2l0,0c84.8,0,166.2,32.8,226.2,91.2
			s93.7,137.5,93.7,220.1l0,0c0,171.9-143.2,311.2-319.9,311.2l0,0C166.5,654.9,23.2,515.6,23.2,343.7L23.2,343.7z"/>
		<path class="st3" d="M23.2,343.7L23.2,343.7c0-171.9,143.2-311.2,319.9-311.2l0,0c84.8,0,166.2,32.8,226.2,91.2
			s93.7,137.5,93.7,220.1l0,0c0,171.9-143.2,311.2-319.9,311.2l0,0C166.5,654.9,23.2,515.6,23.2,343.7L23.2,343.7z"/>
		<path d="M127.6,150.5l5.1-13.4h1.9l5.5,13.4h-2l-1.5-4H131l-1.5,4H127.6z M131.5,145.1h4.5l-1.4-3.7c-0.4-1.1-0.7-2-0.9-2.8
			c-0.2,0.9-0.4,1.7-0.7,2.5L131.5,145.1z M141.4,150.5v-9.7h1.5v1.4c0.3-0.5,0.7-0.9,1.2-1.1c0.5-0.3,1.1-0.4,1.7-0.4
			c0.7,0,1.3,0.2,1.8,0.5c0.5,0.3,0.8,0.7,1,1.2c0.8-1.1,1.8-1.7,3-1.7c1,0,1.7,0.3,2.2,0.8c0.5,0.5,0.8,1.3,0.8,2.5v6.6h-1.6v-6.1
			c0-0.7-0.1-1.1-0.2-1.4c-0.1-0.3-0.3-0.5-0.6-0.7s-0.6-0.3-1-0.3c-0.7,0-1.2,0.2-1.7,0.7c-0.4,0.4-0.7,1.2-0.7,2.2v5.6h-1.6v-6.3
			c0-0.7-0.1-1.3-0.4-1.6c-0.3-0.4-0.7-0.5-1.3-0.5c-0.5,0-0.9,0.1-1.3,0.4c-0.4,0.2-0.7,0.6-0.9,1.1c-0.2,0.5-0.2,1.1-0.2,2v5
			H141.4z M163.2,149.4c-0.6,0.5-1.2,0.9-1.8,1.1c-0.6,0.2-1.2,0.3-1.8,0.3c-1.1,0-1.9-0.3-2.5-0.8c-0.6-0.5-0.9-1.2-0.9-2
			c0-0.5,0.1-0.9,0.3-1.3c0.2-0.4,0.5-0.7,0.8-0.9c0.4-0.2,0.8-0.4,1.2-0.5c0.3-0.1,0.8-0.2,1.5-0.2c1.3-0.2,2.3-0.3,2.9-0.6
			c0-0.2,0-0.4,0-0.4c0-0.7-0.2-1.1-0.5-1.4c-0.4-0.4-1-0.5-1.9-0.5c-0.8,0-1.3,0.1-1.7,0.4c-0.4,0.3-0.6,0.7-0.8,1.4l-1.6-0.2
			c0.1-0.7,0.4-1.2,0.7-1.6c0.3-0.4,0.8-0.8,1.5-1c0.6-0.2,1.4-0.3,2.2-0.3c0.8,0,1.5,0.1,2,0.3c0.5,0.2,0.9,0.4,1.1,0.7
			c0.2,0.3,0.4,0.7,0.5,1.1c0.1,0.3,0.1,0.8,0.1,1.5v2.2c0,1.5,0,2.5,0.1,2.9c0.1,0.4,0.2,0.8,0.4,1.2h-1.7
			C163.4,150.2,163.2,149.8,163.2,149.4z M163.1,145.7c-0.6,0.2-1.5,0.5-2.7,0.6c-0.7,0.1-1.2,0.2-1.4,0.3s-0.5,0.3-0.7,0.5
			c-0.1,0.2-0.2,0.5-0.2,0.8c0,0.4,0.2,0.8,0.5,1.1c0.3,0.3,0.8,0.4,1.5,0.4c0.6,0,1.2-0.1,1.7-0.4c0.5-0.3,0.9-0.7,1.1-1.1
			c0.2-0.4,0.3-0.9,0.3-1.6V145.7z M166.4,150.5v-1.3l6.2-7.1c-0.7,0-1.3,0.1-1.8,0.1h-3.9v-1.3h7.9v1.1l-5.2,6.1l-1,1.1
			c0.7-0.1,1.4-0.1,2.1-0.1h4.5v1.4H166.4z M176,145.7c0-1.8,0.5-3.1,1.5-4c0.8-0.7,1.8-1.1,3-1.1c1.3,0,2.4,0.4,3.3,1.3
			c0.8,0.9,1.3,2.1,1.3,3.6c0,1.2-0.2,2.2-0.6,2.9c-0.4,0.7-0.9,1.3-1.6,1.7c-0.7,0.4-1.5,0.6-2.3,0.6c-1.4,0-2.4-0.4-3.3-1.3
			C176.4,148.6,176,147.3,176,145.7z M177.7,145.7c0,1.2,0.3,2.2,0.8,2.8c0.5,0.6,1.2,0.9,2,0.9c0.8,0,1.5-0.3,2-0.9
			c0.5-0.6,0.8-1.6,0.8-2.8c0-1.2-0.3-2.1-0.8-2.7c-0.5-0.6-1.2-0.9-2-0.9c-0.8,0-1.5,0.3-2,0.9
			C177.9,143.5,177.7,144.5,177.7,145.7z M187,150.5v-9.7h1.5v1.4c0.7-1.1,1.7-1.6,3.1-1.6c0.6,0,1.1,0.1,1.6,0.3
			c0.5,0.2,0.9,0.5,1.1,0.8c0.2,0.3,0.4,0.7,0.5,1.2c0.1,0.3,0.1,0.8,0.1,1.6v6h-1.6v-5.9c0-0.7-0.1-1.2-0.2-1.5
			c-0.1-0.3-0.3-0.6-0.7-0.8c-0.3-0.2-0.7-0.3-1.1-0.3c-0.7,0-1.3,0.2-1.8,0.7c-0.5,0.4-0.8,1.3-0.8,2.5v5.3H187z M205.1,150.5
			l-3.5-13.4h1.8l2,8.8c0.2,0.9,0.4,1.8,0.6,2.7c0.3-1.4,0.5-2.2,0.6-2.5l2.5-9h2.1l1.9,6.8c0.5,1.7,0.8,3.2,1,4.7
			c0.2-0.8,0.4-1.8,0.7-2.9l2.1-8.6h1.8l-3.7,13.4h-1.7l-2.8-10.2c-0.2-0.9-0.4-1.4-0.4-1.6c-0.1,0.6-0.3,1.1-0.4,1.6l-2.8,10.2
			H205.1z M226.4,147.4l1.7,0.2c-0.3,1-0.8,1.8-1.5,2.3c-0.7,0.5-1.6,0.8-2.8,0.8c-1.4,0-2.5-0.4-3.4-1.3c-0.8-0.9-1.2-2.1-1.2-3.7
			c0-1.6,0.4-2.9,1.2-3.8c0.8-0.9,1.9-1.3,3.3-1.3c1.3,0,2.3,0.4,3.2,1.3c0.8,0.9,1.2,2.1,1.2,3.7c0,0.1,0,0.2,0,0.4h-7.2
			c0.1,1.1,0.4,1.9,0.9,2.5c0.5,0.6,1.2,0.8,2,0.8c0.6,0,1.1-0.2,1.5-0.5C225.8,148.6,226.2,148.1,226.4,147.4z M221,144.8h5.4
			c-0.1-0.8-0.3-1.4-0.6-1.8c-0.5-0.6-1.2-1-2-1c-0.8,0-1.4,0.3-1.9,0.8C221.4,143.3,221.1,143.9,221,144.8z M231.7,150.5h-1.5
			v-13.4h1.6v4.8c0.7-0.9,1.6-1.3,2.7-1.3c0.6,0,1.2,0.1,1.7,0.4s1,0.6,1.3,1c0.3,0.4,0.6,0.9,0.8,1.6c0.2,0.6,0.3,1.3,0.3,2
			c0,1.7-0.4,2.9-1.2,3.8c-0.8,0.9-1.8,1.4-3,1.4c-1.1,0-2-0.5-2.7-1.4V150.5z M231.7,145.6c0,1.2,0.2,2,0.5,2.5
			c0.5,0.8,1.2,1.3,2.1,1.3c0.7,0,1.3-0.3,1.9-0.9s0.8-1.6,0.8-2.8c0-1.3-0.2-2.2-0.8-2.8s-1.1-0.9-1.8-0.9c-0.7,0-1.3,0.3-1.9,0.9
			C231.9,143.6,231.7,144.5,231.7,145.6z M245.3,146.2l1.7-0.1c0.1,0.7,0.3,1.2,0.5,1.6c0.3,0.4,0.7,0.8,1.3,1
			c0.6,0.3,1.3,0.4,2.1,0.4c0.7,0,1.3-0.1,1.8-0.3s0.9-0.5,1.2-0.8c0.2-0.4,0.4-0.7,0.4-1.2s-0.1-0.8-0.4-1.1
			c-0.2-0.3-0.6-0.6-1.2-0.8c-0.4-0.1-1.2-0.3-2.4-0.6c-1.2-0.3-2.1-0.6-2.6-0.8c-0.6-0.3-1.1-0.7-1.4-1.2c-0.3-0.5-0.5-1.1-0.5-1.7
			c0-0.7,0.2-1.3,0.6-1.9c0.4-0.6,0.9-1,1.7-1.3c0.7-0.3,1.6-0.5,2.5-0.5c1,0,1.9,0.2,2.6,0.5c0.8,0.3,1.3,0.8,1.8,1.4
			c0.4,0.6,0.6,1.3,0.7,2.1l-1.7,0.1c-0.1-0.8-0.4-1.5-0.9-1.9c-0.5-0.4-1.3-0.7-2.3-0.7c-1.1,0-1.9,0.2-2.3,0.6s-0.7,0.9-0.7,1.4
			c0,0.5,0.2,0.9,0.5,1.2c0.3,0.3,1.2,0.6,2.7,1c1.4,0.3,2.4,0.6,3,0.8c0.8,0.4,1.4,0.8,1.7,1.4c0.4,0.6,0.6,1.2,0.6,1.9
			c0,0.7-0.2,1.4-0.6,2c-0.4,0.6-1,1.1-1.8,1.5c-0.8,0.3-1.6,0.5-2.6,0.5c-1.2,0-2.2-0.2-3-0.5c-0.8-0.4-1.5-0.9-1.9-1.6
			C245.6,147.9,245.4,147.1,245.3,146.2z M264.8,147.4l1.7,0.2c-0.3,1-0.8,1.8-1.5,2.3c-0.7,0.5-1.6,0.8-2.8,0.8
			c-1.4,0-2.5-0.4-3.4-1.3c-0.8-0.9-1.2-2.1-1.2-3.7c0-1.6,0.4-2.9,1.2-3.8c0.8-0.9,1.9-1.3,3.3-1.3c1.3,0,2.3,0.4,3.2,1.3
			c0.8,0.9,1.2,2.1,1.2,3.7c0,0.1,0,0.2,0,0.4h-7.2c0.1,1.1,0.4,1.9,0.9,2.5c0.5,0.6,1.2,0.8,2,0.8c0.6,0,1.1-0.2,1.5-0.5
			C264.2,148.6,264.6,148.1,264.8,147.4z M259.4,144.8h5.4c-0.1-0.8-0.3-1.4-0.6-1.8c-0.5-0.6-1.2-1-2-1c-0.8,0-1.4,0.3-1.9,0.8
			C259.7,143.3,259.5,143.9,259.4,144.8z M268.5,150.5v-9.7h1.5v1.5c0.4-0.7,0.7-1.1,1-1.4c0.3-0.2,0.7-0.3,1.1-0.3
			c0.6,0,1.1,0.2,1.7,0.5l-0.6,1.5c-0.4-0.2-0.8-0.4-1.2-0.4c-0.4,0-0.7,0.1-1,0.3s-0.5,0.5-0.6,0.9c-0.2,0.6-0.3,1.2-0.3,1.9v5.1
			H268.5z M277.5,150.5l-3.7-9.7h1.7l2.1,5.8c0.2,0.6,0.4,1.3,0.6,1.9c0.1-0.5,0.3-1.1,0.6-1.8l2.1-5.9h1.7l-3.7,9.7H277.5z
			 M284.1,139.1v-1.9h1.6v1.9H284.1z M284.1,150.5v-9.7h1.6v9.7H284.1z M294.6,147l1.6,0.2c-0.2,1.1-0.6,2-1.4,2.6
			c-0.7,0.6-1.6,0.9-2.7,0.9c-1.3,0-2.4-0.4-3.2-1.3c-0.8-0.9-1.2-2.1-1.2-3.7c0-1.1,0.2-2,0.5-2.8s0.9-1.4,1.6-1.8
			c0.7-0.4,1.5-0.6,2.3-0.6c1.1,0,1.9,0.3,2.6,0.8c0.7,0.5,1.1,1.3,1.3,2.3l-1.6,0.2c-0.2-0.6-0.4-1.1-0.8-1.5
			c-0.4-0.3-0.8-0.5-1.4-0.5c-0.8,0-1.5,0.3-2,0.9c-0.5,0.6-0.8,1.5-0.8,2.8c0,1.3,0.2,2.2,0.8,2.8c0.5,0.6,1.2,0.9,2,0.9
			c0.6,0,1.2-0.2,1.6-0.6C294.2,148.4,294.4,147.8,294.6,147z M304.2,147.4l1.7,0.2c-0.3,1-0.8,1.8-1.5,2.3
			c-0.7,0.5-1.6,0.8-2.8,0.8c-1.4,0-2.5-0.4-3.4-1.3c-0.8-0.9-1.2-2.1-1.2-3.7c0-1.6,0.4-2.9,1.2-3.8c0.8-0.9,1.9-1.3,3.3-1.3
			c1.3,0,2.3,0.4,3.2,1.3c0.8,0.9,1.2,2.1,1.2,3.7c0,0.1,0,0.2,0,0.4h-7.2c0.1,1.1,0.4,1.9,0.9,2.5c0.5,0.6,1.2,0.8,2,0.8
			c0.6,0,1.1-0.2,1.5-0.5C303.6,148.6,303.9,148.1,304.2,147.4z M298.8,144.8h5.4c-0.1-0.8-0.3-1.4-0.6-1.8c-0.5-0.6-1.2-1-2-1
			c-0.8,0-1.4,0.3-1.9,0.8C299.1,143.3,298.9,143.9,298.8,144.8z M307.3,147.6l1.6-0.2c0.1,0.6,0.3,1.1,0.8,1.5
			c0.4,0.3,1,0.5,1.8,0.5s1.3-0.2,1.7-0.5c0.4-0.3,0.5-0.7,0.5-1.1c0-0.4-0.2-0.7-0.5-0.9c-0.2-0.1-0.8-0.3-1.7-0.5
			c-1.2-0.3-2-0.6-2.5-0.8c-0.5-0.2-0.8-0.5-1-0.9c-0.2-0.4-0.4-0.8-0.4-1.3c0-0.4,0.1-0.8,0.3-1.2c0.2-0.4,0.5-0.7,0.8-0.9
			c0.2-0.2,0.6-0.3,1-0.5c0.4-0.1,0.9-0.2,1.4-0.2c0.8,0,1.4,0.1,2,0.3s1,0.5,1.3,0.9c0.3,0.4,0.5,0.9,0.6,1.5l-1.6,0.2
			c-0.1-0.5-0.3-0.9-0.6-1.2c-0.3-0.3-0.8-0.4-1.5-0.4c-0.8,0-1.3,0.1-1.6,0.4c-0.3,0.2-0.5,0.5-0.5,0.9c0,0.2,0.1,0.4,0.2,0.6
			c0.1,0.2,0.3,0.3,0.6,0.4c0.2,0.1,0.6,0.2,1.4,0.4c1.2,0.3,2,0.6,2.4,0.8s0.8,0.5,1.1,0.9s0.4,0.8,0.4,1.4c0,0.6-0.2,1.1-0.5,1.5
			c-0.3,0.5-0.8,0.9-1.4,1.1c-0.6,0.3-1.3,0.4-2,0.4c-1.2,0-2.2-0.3-2.9-0.8C307.9,149.5,307.5,148.7,307.3,147.6z M325.6,154.5
			c-0.9-1.1-1.7-2.5-2.3-4s-0.9-3.1-0.9-4.8c0-1.4,0.2-2.8,0.7-4.1c0.6-1.5,1.4-3.1,2.5-4.6h1.2c-0.7,1.3-1.2,2.2-1.5,2.7
			c-0.4,0.8-0.7,1.7-0.9,2.6c-0.3,1.1-0.4,2.3-0.4,3.4c0,2.9,0.9,5.8,2.7,8.8H325.6z M327.4,150.5l5.1-13.4h1.9l5.5,13.4h-2l-1.5-4
			h-5.6l-1.5,4H327.4z M331.3,145.1h4.5l-1.4-3.7c-0.4-1.1-0.7-2-0.9-2.8c-0.2,0.9-0.4,1.7-0.7,2.5L331.3,145.1z M343,150.5
			l-3.5-13.4h1.8l2,8.8c0.2,0.9,0.4,1.8,0.6,2.7c0.3-1.4,0.5-2.2,0.6-2.5l2.5-9h2.1l1.9,6.8c0.5,1.7,0.8,3.2,1,4.7
			c0.2-0.8,0.4-1.8,0.7-2.9l2.1-8.6h1.8l-3.7,13.4h-1.7l-2.8-10.2c-0.2-0.9-0.4-1.4-0.4-1.6c-0.1,0.6-0.3,1.1-0.4,1.6l-2.8,10.2H343
			z M357.6,146.2l1.7-0.1c0.1,0.7,0.3,1.2,0.5,1.6c0.3,0.4,0.7,0.8,1.3,1c0.6,0.3,1.3,0.4,2.1,0.4c0.7,0,1.3-0.1,1.8-0.3
			c0.5-0.2,0.9-0.5,1.2-0.8c0.2-0.4,0.4-0.7,0.4-1.2s-0.1-0.8-0.4-1.1c-0.2-0.3-0.6-0.6-1.2-0.8c-0.4-0.1-1.2-0.3-2.4-0.6
			c-1.2-0.3-2.1-0.6-2.6-0.8c-0.6-0.3-1.1-0.7-1.4-1.2c-0.3-0.5-0.5-1.1-0.5-1.7c0-0.7,0.2-1.3,0.6-1.9c0.4-0.6,0.9-1,1.7-1.3
			c0.7-0.3,1.6-0.5,2.5-0.5c1,0,1.9,0.2,2.6,0.5c0.8,0.3,1.3,0.8,1.8,1.4c0.4,0.6,0.6,1.3,0.7,2.1l-1.7,0.1
			c-0.1-0.8-0.4-1.5-0.9-1.9c-0.5-0.4-1.3-0.7-2.3-0.7c-1.1,0-1.9,0.2-2.3,0.6c-0.5,0.4-0.7,0.9-0.7,1.4c0,0.5,0.2,0.9,0.5,1.2
			c0.3,0.3,1.2,0.6,2.7,1c1.4,0.3,2.4,0.6,3,0.8c0.8,0.4,1.4,0.8,1.7,1.4c0.4,0.6,0.6,1.2,0.6,1.9c0,0.7-0.2,1.4-0.6,2
			c-0.4,0.6-1,1.1-1.8,1.5c-0.8,0.3-1.6,0.5-2.6,0.5c-1.2,0-2.2-0.2-3-0.5c-0.8-0.4-1.5-0.9-1.9-1.6
			C357.9,147.9,357.7,147.1,357.6,146.2z M371.6,154.5h-1.2c1.8-2.9,2.7-5.8,2.7-8.8c0-1.1-0.1-2.3-0.4-3.4
			c-0.2-0.9-0.5-1.8-0.9-2.6c-0.2-0.6-0.7-1.5-1.5-2.7h1.2c1.1,1.5,2,3.1,2.5,4.6c0.5,1.3,0.7,2.7,0.7,4.1c0,1.6-0.3,3.2-0.9,4.8
			S372.4,153.3,371.6,154.5z M381.3,145.7c0-1.8,0.5-3.1,1.5-4c0.8-0.7,1.8-1.1,3-1.1c1.3,0,2.4,0.4,3.3,1.3
			c0.8,0.9,1.3,2.1,1.3,3.6c0,1.2-0.2,2.2-0.6,2.9c-0.4,0.7-0.9,1.3-1.6,1.7c-0.7,0.4-1.5,0.6-2.3,0.6c-1.4,0-2.4-0.4-3.3-1.3
			C381.7,148.6,381.3,147.3,381.3,145.7z M382.9,145.7c0,1.2,0.3,2.2,0.8,2.8c0.5,0.6,1.2,0.9,2,0.9c0.8,0,1.5-0.3,2-0.9
			c0.5-0.6,0.8-1.6,0.8-2.8c0-1.2-0.3-2.1-0.8-2.7c-0.5-0.6-1.2-0.9-2-0.9c-0.8,0-1.5,0.3-2,0.9
			C383.2,143.5,382.9,144.5,382.9,145.7z M398.6,150.5v-1.4c-0.8,1.1-1.8,1.6-3.1,1.6c-0.6,0-1.1-0.1-1.6-0.3
			c-0.5-0.2-0.9-0.5-1.1-0.8c-0.2-0.3-0.4-0.7-0.5-1.2c-0.1-0.3-0.1-0.8-0.1-1.5v-6h1.6v5.4c0,0.9,0,1.4,0.1,1.7
			c0.1,0.4,0.3,0.8,0.7,1c0.3,0.2,0.7,0.4,1.2,0.4c0.5,0,0.9-0.1,1.4-0.4c0.4-0.3,0.7-0.6,0.9-1c0.2-0.4,0.3-1.1,0.3-1.9v-5.2h1.6
			v9.7H398.6z M406.2,149.1l0.2,1.5c-0.5,0.1-0.9,0.1-1.2,0.1c-0.6,0-1.1-0.1-1.4-0.3c-0.3-0.2-0.6-0.4-0.7-0.7
			c-0.1-0.3-0.2-1-0.2-1.9v-5.6h-1.2v-1.3h1.2v-2.4l1.6-1v3.4h1.7v1.3h-1.7v5.7c0,0.5,0,0.8,0.1,0.9c0.1,0.1,0.2,0.2,0.3,0.3
			c0.1,0.1,0.3,0.1,0.6,0.1C405.7,149.1,405.9,149.1,406.2,149.1z M407.1,147.6l1.6-0.2c0.1,0.6,0.3,1.1,0.8,1.5
			c0.4,0.3,1,0.5,1.8,0.5s1.3-0.2,1.7-0.5c0.4-0.3,0.5-0.7,0.5-1.1c0-0.4-0.2-0.7-0.5-0.9c-0.2-0.1-0.8-0.3-1.7-0.5
			c-1.2-0.3-2-0.6-2.5-0.8c-0.5-0.2-0.8-0.5-1-0.9c-0.2-0.4-0.4-0.8-0.4-1.3c0-0.4,0.1-0.8,0.3-1.2c0.2-0.4,0.5-0.7,0.8-0.9
			c0.2-0.2,0.6-0.3,1-0.5c0.4-0.1,0.9-0.2,1.4-0.2c0.8,0,1.4,0.1,2,0.3c0.6,0.2,1,0.5,1.3,0.9c0.3,0.4,0.5,0.9,0.6,1.5l-1.6,0.2
			c-0.1-0.5-0.3-0.9-0.6-1.2c-0.3-0.3-0.8-0.4-1.5-0.4c-0.8,0-1.3,0.1-1.6,0.4c-0.3,0.2-0.5,0.5-0.5,0.9c0,0.2,0.1,0.4,0.2,0.6
			c0.1,0.2,0.3,0.3,0.6,0.4c0.2,0.1,0.6,0.2,1.4,0.4c1.2,0.3,2,0.6,2.4,0.8c0.5,0.2,0.8,0.5,1.1,0.9c0.3,0.4,0.4,0.8,0.4,1.4
			c0,0.6-0.2,1.1-0.5,1.5c-0.3,0.5-0.8,0.9-1.4,1.1c-0.6,0.3-1.3,0.4-2,0.4c-1.2,0-2.2-0.3-2.9-0.8
			C407.7,149.5,407.3,148.7,407.1,147.6z M417.1,139.1v-1.9h1.6v1.9H417.1z M417.1,150.5v-9.7h1.6v9.7H417.1z M427.5,150.5v-1.2
			c-0.6,1-1.5,1.4-2.7,1.4c-0.8,0-1.5-0.2-2.1-0.6c-0.6-0.4-1.1-1-1.5-1.8c-0.4-0.8-0.5-1.6-0.5-2.6c0-1,0.2-1.8,0.5-2.6
			c0.3-0.8,0.8-1.4,1.4-1.8c0.6-0.4,1.4-0.6,2.2-0.6c0.6,0,1.1,0.1,1.5,0.4c0.5,0.2,0.8,0.6,1.1,1v-4.8h1.6v13.4H427.5z
			 M422.4,145.7c0,1.2,0.3,2.2,0.8,2.8c0.5,0.6,1.1,0.9,1.8,0.9c0.7,0,1.3-0.3,1.8-0.9c0.5-0.6,0.8-1.5,0.8-2.7
			c0-1.3-0.3-2.3-0.8-2.9c-0.5-0.6-1.1-0.9-1.9-0.9c-0.7,0-1.3,0.3-1.8,0.9C422.6,143.5,422.4,144.4,422.4,145.7z M438.3,147.4
			l1.7,0.2c-0.3,1-0.8,1.8-1.5,2.3c-0.7,0.5-1.6,0.8-2.8,0.8c-1.4,0-2.5-0.4-3.4-1.3c-0.8-0.9-1.2-2.1-1.2-3.7
			c0-1.6,0.4-2.9,1.2-3.8c0.8-0.9,1.9-1.3,3.3-1.3c1.3,0,2.3,0.4,3.2,1.3c0.8,0.9,1.2,2.1,1.2,3.7c0,0.1,0,0.2,0,0.4h-7.2
			c0.1,1.1,0.4,1.9,0.9,2.5c0.5,0.6,1.2,0.8,2,0.8c0.6,0,1.1-0.2,1.5-0.5C437.7,148.6,438,148.1,438.3,147.4z M432.9,144.8h5.4
			c-0.1-0.8-0.3-1.4-0.6-1.8c-0.5-0.6-1.2-1-2-1c-0.8,0-1.4,0.3-1.9,0.8C433.2,143.3,432.9,143.9,432.9,144.8z M451.2,150.5
			l-5.2-13.4h1.9l3.5,9.7c0.3,0.8,0.5,1.5,0.7,2.2c0.2-0.7,0.4-1.5,0.7-2.2l3.6-9.7h1.8l-5.2,13.4H451.2z M457,150.5l5.1-13.4h1.9
			l5.5,13.4h-2l-1.5-4h-5.6l-1.5,4H457z M460.9,145.1h4.5l-1.4-3.7c-0.4-1.1-0.7-2-0.9-2.8c-0.2,0.9-0.4,1.7-0.7,2.5L460.9,145.1z
			 M475.1,150.5v-13.4h9.7v1.6h-7.9v4.1h7.4v1.6h-7.4v4.5h8.2v1.6H475.1z M487.3,150.5v-9.7h1.5v1.4c0.7-1.1,1.7-1.6,3.1-1.6
			c0.6,0,1.1,0.1,1.6,0.3c0.5,0.2,0.9,0.5,1.1,0.8c0.2,0.3,0.4,0.7,0.5,1.2c0.1,0.3,0.1,0.8,0.1,1.6v6h-1.6v-5.9
			c0-0.7-0.1-1.2-0.2-1.5c-0.1-0.3-0.3-0.6-0.7-0.8c-0.3-0.2-0.7-0.3-1.1-0.3c-0.7,0-1.3,0.2-1.8,0.7c-0.5,0.4-0.8,1.3-0.8,2.5v5.3
			H487.3z M501.3,149.1l0.2,1.5c-0.5,0.1-0.9,0.1-1.2,0.1c-0.6,0-1.1-0.1-1.4-0.3c-0.3-0.2-0.6-0.4-0.7-0.7c-0.1-0.3-0.2-1-0.2-1.9
			v-5.6h-1.2v-1.3h1.2v-2.4l1.6-1v3.4h1.7v1.3h-1.7v5.7c0,0.5,0,0.8,0.1,0.9c0.1,0.1,0.2,0.2,0.3,0.3c0.1,0.1,0.3,0.1,0.6,0.1
			C500.7,149.1,501,149.1,501.3,149.1z M509.5,147.4l1.7,0.2c-0.3,1-0.8,1.8-1.5,2.3c-0.7,0.5-1.6,0.8-2.8,0.8
			c-1.4,0-2.5-0.4-3.4-1.3c-0.8-0.9-1.2-2.1-1.2-3.7c0-1.6,0.4-2.9,1.2-3.8c0.8-0.9,1.9-1.3,3.3-1.3c1.3,0,2.3,0.4,3.2,1.3
			c0.8,0.9,1.2,2.1,1.2,3.7c0,0.1,0,0.2,0,0.4H504c0.1,1.1,0.4,1.9,0.9,2.5c0.5,0.6,1.2,0.8,2,0.8c0.6,0,1.1-0.2,1.5-0.5
			C508.9,148.6,509.2,148.1,509.5,147.4z M504.1,144.8h5.4c-0.1-0.8-0.3-1.4-0.6-1.8c-0.5-0.6-1.2-1-2-1c-0.8,0-1.4,0.3-1.9,0.8
			C504.4,143.3,504.2,143.9,504.1,144.8z M513.2,150.5v-9.7h1.5v1.5c0.4-0.7,0.7-1.1,1-1.4c0.3-0.2,0.7-0.3,1.1-0.3
			c0.6,0,1.1,0.2,1.7,0.5l-0.6,1.5c-0.4-0.2-0.8-0.4-1.2-0.4c-0.4,0-0.7,0.1-1,0.3s-0.5,0.5-0.6,0.9c-0.2,0.6-0.3,1.2-0.3,1.9v5.1
			H513.2z M519.5,154.2v-13.4h1.5v1.2c0.4-0.5,0.8-0.9,1.2-1.1c0.4-0.2,1-0.4,1.6-0.4c0.8,0,1.5,0.2,2.2,0.6c0.6,0.4,1.1,1,1.4,1.8
			c0.3,0.8,0.5,1.6,0.5,2.5c0,1-0.2,1.9-0.5,2.7s-0.9,1.4-1.5,1.8c-0.7,0.4-1.4,0.6-2.1,0.6c-0.5,0-1-0.1-1.5-0.3s-0.8-0.5-1.1-0.9
			v4.7H519.5z M520.9,145.8c0,1.2,0.2,2.2,0.8,2.8c0.5,0.6,1.1,0.9,1.8,0.9c0.7,0,1.4-0.3,1.9-0.9c0.5-0.6,0.8-1.6,0.8-2.9
			c0-1.2-0.3-2.2-0.8-2.8c-0.5-0.6-1.1-0.9-1.8-0.9c-0.7,0-1.3,0.3-1.9,1C521.2,143.6,520.9,144.5,520.9,145.8z M529.8,150.5v-9.7
			h1.5v1.5c0.4-0.7,0.7-1.1,1-1.4c0.3-0.2,0.7-0.3,1.1-0.3c0.6,0,1.1,0.2,1.7,0.5l-0.6,1.5c-0.4-0.2-0.8-0.4-1.2-0.4
			c-0.4,0-0.7,0.1-1,0.3s-0.5,0.5-0.6,0.9c-0.2,0.6-0.3,1.2-0.3,1.9v5.1H529.8z M536,139.1v-1.9h1.6v1.9H536z M536,150.5v-9.7h1.6
			v9.7H536z M539.5,147.6l1.6-0.2c0.1,0.6,0.3,1.1,0.8,1.5c0.4,0.3,1,0.5,1.8,0.5s1.3-0.2,1.7-0.5c0.4-0.3,0.5-0.7,0.5-1.1
			c0-0.4-0.2-0.7-0.5-0.9c-0.2-0.1-0.8-0.3-1.7-0.5c-1.2-0.3-2-0.6-2.5-0.8c-0.5-0.2-0.8-0.5-1-0.9c-0.2-0.4-0.4-0.8-0.4-1.3
			c0-0.4,0.1-0.8,0.3-1.2c0.2-0.4,0.5-0.7,0.8-0.9c0.2-0.2,0.6-0.3,1-0.5c0.4-0.1,0.9-0.2,1.4-0.2c0.8,0,1.4,0.1,2,0.3
			s1,0.5,1.3,0.9c0.3,0.4,0.5,0.9,0.6,1.5l-1.6,0.2c-0.1-0.5-0.3-0.9-0.6-1.2c-0.3-0.3-0.8-0.4-1.5-0.4c-0.8,0-1.3,0.1-1.6,0.4
			c-0.3,0.2-0.5,0.5-0.5,0.9c0,0.2,0.1,0.4,0.2,0.6c0.1,0.2,0.3,0.3,0.6,0.4c0.2,0.1,0.6,0.2,1.4,0.4c1.2,0.3,2,0.6,2.4,0.8
			s0.8,0.5,1.1,0.9s0.4,0.8,0.4,1.4c0,0.6-0.2,1.1-0.5,1.5c-0.3,0.5-0.8,0.9-1.4,1.1c-0.6,0.3-1.3,0.4-2,0.4c-1.2,0-2.2-0.3-2.9-0.8
			C540.1,149.5,539.7,148.7,539.5,147.6z M556.1,147.4l1.7,0.2c-0.3,1-0.8,1.8-1.5,2.3c-0.7,0.5-1.6,0.8-2.8,0.8
			c-1.4,0-2.5-0.4-3.4-1.3c-0.8-0.9-1.2-2.1-1.2-3.7c0-1.6,0.4-2.9,1.2-3.8c0.8-0.9,1.9-1.3,3.3-1.3c1.3,0,2.3,0.4,3.2,1.3
			c0.8,0.9,1.2,2.1,1.2,3.7c0,0.1,0,0.2,0,0.4h-7.2c0.1,1.1,0.4,1.9,0.9,2.5c0.5,0.6,1.2,0.8,2,0.8c0.6,0,1.1-0.2,1.5-0.5
			C555.6,148.6,555.9,148.1,556.1,147.4z M550.8,144.8h5.4c-0.1-0.8-0.3-1.4-0.6-1.8c-0.5-0.6-1.2-1-2-1c-0.8,0-1.4,0.3-1.9,0.8
			C551.1,143.3,550.8,143.9,550.8,144.8z"/>
		<path d="M258.2,167.9l1.8,0.5c-0.4,1.4-1,2.6-2,3.3c-1,0.8-2.1,1.1-3.5,1.1c-1.4,0-2.6-0.3-3.5-0.9c-0.9-0.6-1.6-1.4-2.1-2.5
			c-0.5-1.1-0.7-2.3-0.7-3.6c0-1.4,0.3-2.6,0.8-3.6c0.5-1,1.3-1.8,2.3-2.4c1-0.5,2.1-0.8,3.2-0.8c1.3,0,2.5,0.3,3.4,1
			c0.9,0.7,1.6,1.6,1.9,2.9l-1.7,0.4c-0.3-1-0.8-1.7-1.4-2.1c-0.6-0.4-1.3-0.7-2.2-0.7c-1,0-1.9,0.2-2.6,0.7c-0.7,0.5-1.2,1.2-1.5,2
			c-0.3,0.8-0.4,1.7-0.4,2.6c0,1.1,0.2,2.1,0.5,3c0.3,0.8,0.8,1.5,1.5,1.9c0.7,0.4,1.5,0.6,2.3,0.6c1,0,1.8-0.3,2.5-0.9
			S258,169,258.2,167.9z M261.9,172.5v-13.4h1.6v13.4H261.9z M265.5,167.7c0-1.8,0.5-3.1,1.5-4c0.8-0.7,1.8-1.1,3-1.1
			c1.3,0,2.4,0.4,3.3,1.3c0.8,0.9,1.3,2.1,1.3,3.6c0,1.2-0.2,2.2-0.6,2.9c-0.4,0.7-0.9,1.3-1.6,1.7c-0.7,0.4-1.5,0.6-2.3,0.6
			c-1.4,0-2.4-0.4-3.3-1.3C265.9,170.6,265.5,169.3,265.5,167.7z M267.2,167.7c0,1.2,0.3,2.2,0.8,2.8c0.5,0.6,1.2,0.9,2,0.9
			c0.8,0,1.5-0.3,2-0.9c0.5-0.6,0.8-1.6,0.8-2.8c0-1.2-0.3-2.1-0.8-2.7s-1.2-0.9-2-0.9c-0.8,0-1.5,0.3-2,0.9
			C267.4,165.5,267.2,166.5,267.2,167.7z M282.8,172.5v-1.4c-0.8,1.1-1.8,1.6-3.1,1.6c-0.6,0-1.1-0.1-1.6-0.3
			c-0.5-0.2-0.9-0.5-1.1-0.8c-0.2-0.3-0.4-0.7-0.5-1.2c-0.1-0.3-0.1-0.8-0.1-1.5v-6h1.6v5.4c0,0.9,0,1.4,0.1,1.7
			c0.1,0.4,0.3,0.8,0.7,1c0.3,0.2,0.7,0.4,1.2,0.4c0.5,0,0.9-0.1,1.4-0.4c0.4-0.3,0.7-0.6,0.9-1c0.2-0.4,0.3-1.1,0.3-1.9v-5.2h1.6
			v9.7H282.8z M293.1,172.5v-1.2c-0.6,1-1.5,1.4-2.7,1.4c-0.8,0-1.5-0.2-2.1-0.6c-0.6-0.4-1.1-1-1.5-1.8c-0.4-0.8-0.5-1.6-0.5-2.6
			c0-1,0.2-1.8,0.5-2.6c0.3-0.8,0.8-1.4,1.4-1.8c0.6-0.4,1.4-0.6,2.2-0.6c0.6,0,1.1,0.1,1.5,0.4c0.5,0.2,0.8,0.6,1.1,1v-4.8h1.6
			v13.4H293.1z M287.9,167.7c0,1.2,0.3,2.2,0.8,2.8c0.5,0.6,1.1,0.9,1.8,0.9c0.7,0,1.3-0.3,1.8-0.9c0.5-0.6,0.8-1.5,0.8-2.7
			c0-1.3-0.3-2.3-0.8-2.9c-0.5-0.6-1.1-0.9-1.9-0.9c-0.7,0-1.3,0.3-1.8,0.9C288.2,165.5,287.9,166.4,287.9,167.7z M301.8,168.5v-1.6
			h5v1.6H301.8z M320.3,167.3v-1.6h5.7v5c-0.9,0.7-1.8,1.2-2.7,1.6c-0.9,0.3-1.9,0.5-2.8,0.5c-1.3,0-2.5-0.3-3.6-0.8
			s-1.9-1.4-2.4-2.4s-0.8-2.2-0.8-3.6c0-1.3,0.3-2.5,0.8-3.6s1.3-2,2.3-2.5c1-0.6,2.2-0.8,3.5-0.8c1,0,1.8,0.2,2.6,0.5
			s1.4,0.8,1.8,1.3c0.4,0.6,0.8,1.3,1,2.2l-1.6,0.4c-0.2-0.7-0.4-1.2-0.8-1.6c-0.3-0.4-0.7-0.7-1.3-0.9s-1.2-0.3-1.8-0.3
			c-0.8,0-1.5,0.1-2.1,0.4c-0.6,0.2-1.1,0.6-1.4,1c-0.4,0.4-0.6,0.8-0.8,1.3c-0.3,0.8-0.5,1.7-0.5,2.7c0,1.2,0.2,2.2,0.6,3
			c0.4,0.8,1,1.4,1.8,1.8c0.8,0.4,1.6,0.6,2.5,0.6c0.8,0,1.5-0.1,2.2-0.4c0.7-0.3,1.3-0.6,1.7-1v-2.5H320.3z M327.7,167.7
			c0-1.8,0.5-3.1,1.5-4c0.8-0.7,1.8-1.1,3-1.1c1.3,0,2.4,0.4,3.3,1.3c0.8,0.9,1.3,2.1,1.3,3.6c0,1.2-0.2,2.2-0.6,2.9
			c-0.4,0.7-0.9,1.3-1.6,1.7c-0.7,0.4-1.5,0.6-2.3,0.6c-1.4,0-2.4-0.4-3.3-1.3C328.1,170.6,327.7,169.3,327.7,167.7z M329.4,167.7
			c0,1.2,0.3,2.2,0.8,2.8c0.5,0.6,1.2,0.9,2,0.9c0.8,0,1.5-0.3,2-0.9c0.5-0.6,0.8-1.6,0.8-2.8c0-1.2-0.3-2.1-0.8-2.7
			c-0.5-0.6-1.2-0.9-2-0.9c-0.8,0-1.5,0.3-2,0.9C329.7,165.5,329.4,166.5,329.4,167.7z M341.4,172.5l-3.7-9.7h1.7l2.1,5.8
			c0.2,0.6,0.4,1.3,0.6,1.9c0.1-0.5,0.3-1.1,0.6-1.8l2.1-5.9h1.7l-3.7,9.7H341.4z M357.8,167.9l1.8,0.5c-0.4,1.4-1,2.6-2,3.3
			c-1,0.8-2.1,1.1-3.5,1.1c-1.4,0-2.6-0.3-3.5-0.9c-0.9-0.6-1.6-1.4-2.1-2.5c-0.5-1.1-0.7-2.3-0.7-3.6c0-1.4,0.3-2.6,0.8-3.6
			c0.5-1,1.3-1.8,2.3-2.4c1-0.5,2.1-0.8,3.2-0.8c1.3,0,2.5,0.3,3.4,1c0.9,0.7,1.6,1.6,1.9,2.9l-1.7,0.4c-0.3-1-0.8-1.7-1.4-2.1
			c-0.6-0.4-1.3-0.7-2.2-0.7c-1,0-1.9,0.2-2.6,0.7c-0.7,0.5-1.2,1.2-1.5,2c-0.3,0.8-0.4,1.7-0.4,2.6c0,1.1,0.2,2.1,0.5,3
			c0.3,0.8,0.8,1.5,1.5,1.9c0.7,0.4,1.5,0.6,2.3,0.6c1,0,1.8-0.3,2.5-0.9C357.1,169.8,357.5,169,357.8,167.9z M361.4,172.5v-13.4
			h1.6v13.4H361.4z M365,167.7c0-1.8,0.5-3.1,1.5-4c0.8-0.7,1.8-1.1,3-1.1c1.3,0,2.4,0.4,3.3,1.3c0.8,0.9,1.3,2.1,1.3,3.6
			c0,1.2-0.2,2.2-0.6,2.9c-0.4,0.7-0.9,1.3-1.6,1.7c-0.7,0.4-1.5,0.6-2.3,0.6c-1.4,0-2.4-0.4-3.3-1.3
			C365.4,170.6,365,169.3,365,167.7z M366.7,167.7c0,1.2,0.3,2.2,0.8,2.8c0.5,0.6,1.2,0.9,2,0.9c0.8,0,1.5-0.3,2-0.9
			c0.5-0.6,0.8-1.6,0.8-2.8c0-1.2-0.3-2.1-0.8-2.7c-0.5-0.6-1.2-0.9-2-0.9c-0.8,0-1.5,0.3-2,0.9C367,165.5,366.7,166.5,366.7,167.7z
			 M382.3,172.5v-1.4c-0.8,1.1-1.8,1.6-3.1,1.6c-0.6,0-1.1-0.1-1.6-0.3c-0.5-0.2-0.9-0.5-1.1-0.8c-0.2-0.3-0.4-0.7-0.5-1.2
			c-0.1-0.3-0.1-0.8-0.1-1.5v-6h1.6v5.4c0,0.9,0,1.4,0.1,1.7c0.1,0.4,0.3,0.8,0.7,1c0.3,0.2,0.7,0.4,1.2,0.4c0.5,0,0.9-0.1,1.4-0.4
			c0.4-0.3,0.7-0.6,0.9-1c0.2-0.4,0.3-1.1,0.3-1.9v-5.2h1.6v9.7H382.3z M392.7,172.5v-1.2c-0.6,1-1.5,1.4-2.7,1.4
			c-0.8,0-1.5-0.2-2.1-0.6c-0.6-0.4-1.1-1-1.5-1.8c-0.4-0.8-0.5-1.6-0.5-2.6c0-1,0.2-1.8,0.5-2.6c0.3-0.8,0.8-1.4,1.4-1.8
			c0.6-0.4,1.4-0.6,2.2-0.6c0.6,0,1.1,0.1,1.5,0.4c0.5,0.2,0.8,0.6,1.1,1v-4.8h1.6v13.4H392.7z M387.5,167.7c0,1.2,0.3,2.2,0.8,2.8
			c0.5,0.6,1.1,0.9,1.8,0.9c0.7,0,1.3-0.3,1.8-0.9c0.5-0.6,0.8-1.5,0.8-2.7c0-1.3-0.3-2.3-0.8-2.9c-0.5-0.6-1.1-0.9-1.9-0.9
			c-0.7,0-1.3,0.3-1.8,0.9C387.7,165.5,387.5,166.4,387.5,167.7z M402.2,172.5v-13.4h1.8v5.5h6.9v-5.5h1.8v13.4h-1.8v-6.3H404v6.3
			H402.2z M415.4,161.1v-1.9h1.6v1.9H415.4z M415.4,172.5v-9.7h1.6v9.7H415.4z M419.3,173.3l1.6,0.2c0.1,0.5,0.3,0.9,0.6,1.1
			c0.4,0.3,1,0.5,1.7,0.5c0.8,0,1.3-0.2,1.8-0.5c0.4-0.3,0.7-0.7,0.8-1.3c0.1-0.3,0.1-1,0.1-2.1c-0.7,0.8-1.6,1.3-2.7,1.3
			c-1.3,0-2.4-0.5-3.1-1.4c-0.7-1-1.1-2.1-1.1-3.5c0-0.9,0.2-1.8,0.5-2.6c0.3-0.8,0.8-1.4,1.5-1.8c0.6-0.4,1.4-0.6,2.2-0.6
			c1.1,0,2.1,0.5,2.8,1.4v-1.2h1.5v8.4c0,1.5-0.2,2.6-0.5,3.2c-0.3,0.6-0.8,1.1-1.5,1.5c-0.7,0.4-1.5,0.5-2.5,0.5
			c-1.1,0-2.1-0.3-2.8-0.8C419.6,175.2,419.2,174.4,419.3,173.3z M420.6,167.5c0,1.3,0.2,2.2,0.8,2.8c0.5,0.6,1.1,0.9,1.9,0.9
			c0.8,0,1.4-0.3,1.9-0.9c0.5-0.6,0.8-1.5,0.8-2.7c0-1.2-0.3-2.1-0.8-2.7c-0.5-0.6-1.2-0.9-1.9-0.9c-0.7,0-1.3,0.3-1.9,0.9
			C420.9,165.5,420.6,166.4,420.6,167.5z M429.9,172.5v-13.4h1.6v4.8c0.8-0.9,1.7-1.3,2.9-1.3c0.7,0,1.3,0.1,1.9,0.4
			c0.5,0.3,0.9,0.7,1.1,1.2c0.2,0.5,0.3,1.2,0.3,2.2v6.1h-1.6v-6.1c0-0.8-0.2-1.4-0.5-1.8c-0.4-0.4-0.9-0.6-1.5-0.6
			c-0.5,0-0.9,0.1-1.4,0.4c-0.4,0.2-0.7,0.6-0.9,1c-0.2,0.4-0.3,1-0.3,1.8v5.3H429.9z"/>
		<path class="st2" d="M121.8,416.3L121.8,416.3c0-122.2,99.1-221.3,221.3-221.3l0,0c58.7,0,115,23.3,156.5,64.8
			c41.5,41.5,64.8,97.8,64.8,156.5l0,0c0,122.2-99.1,221.3-221.3,221.3l0,0C220.9,637.6,121.8,538.5,121.8,416.3z"/>
		<path class="st3" d="M121.8,416.3L121.8,416.3c0-122.2,99.1-221.3,221.3-221.3l0,0c58.7,0,115,23.3,156.5,64.8
			c41.5,41.5,64.8,97.8,64.8,156.5l0,0c0,122.2-99.1,221.3-221.3,221.3l0,0C220.9,637.6,121.8,538.5,121.8,416.3z"/>
		<path d="M219.2,308.7l5.1-13.4h1.9l5.5,13.4h-2l-1.5-4h-5.6l-1.5,4H219.2z M223.1,303.2h4.5l-1.4-3.7c-0.4-1.1-0.7-2-0.9-2.8
			c-0.2,0.9-0.4,1.7-0.7,2.5L223.1,303.2z M233,308.7v-9.7h1.5v1.4c0.3-0.5,0.7-0.9,1.2-1.1c0.5-0.3,1.1-0.4,1.7-0.4
			c0.7,0,1.3,0.2,1.8,0.5c0.5,0.3,0.8,0.7,1,1.2c0.8-1.1,1.8-1.7,3-1.7c1,0,1.7,0.3,2.2,0.8c0.5,0.5,0.8,1.3,0.8,2.5v6.6h-1.6v-6.1
			c0-0.7-0.1-1.1-0.2-1.4c-0.1-0.3-0.3-0.5-0.6-0.7s-0.6-0.3-1-0.3c-0.7,0-1.2,0.2-1.7,0.7c-0.4,0.4-0.7,1.2-0.7,2.2v5.6h-1.6v-6.3
			c0-0.7-0.1-1.3-0.4-1.6c-0.3-0.4-0.7-0.5-1.3-0.5c-0.5,0-0.9,0.1-1.3,0.4c-0.4,0.2-0.7,0.6-0.9,1.1c-0.2,0.5-0.2,1.1-0.2,2v5H233z
			 M254.8,307.5c-0.6,0.5-1.2,0.9-1.8,1.1c-0.6,0.2-1.2,0.3-1.8,0.3c-1.1,0-1.9-0.3-2.5-0.8c-0.6-0.5-0.9-1.2-0.9-2
			c0-0.5,0.1-0.9,0.3-1.3c0.2-0.4,0.5-0.7,0.8-0.9c0.4-0.2,0.8-0.4,1.2-0.5c0.3-0.1,0.8-0.2,1.5-0.2c1.3-0.2,2.3-0.3,2.9-0.6
			c0-0.2,0-0.4,0-0.4c0-0.7-0.2-1.1-0.5-1.4c-0.4-0.4-1-0.5-1.9-0.5c-0.8,0-1.3,0.1-1.7,0.4c-0.4,0.3-0.6,0.7-0.8,1.4l-1.6-0.2
			c0.1-0.7,0.4-1.2,0.7-1.6c0.3-0.4,0.8-0.8,1.5-1c0.6-0.2,1.4-0.3,2.2-0.3c0.8,0,1.5,0.1,2,0.3c0.5,0.2,0.9,0.4,1.1,0.7
			c0.2,0.3,0.4,0.7,0.5,1.1c0.1,0.3,0.1,0.8,0.1,1.5v2.2c0,1.5,0,2.5,0.1,2.9c0.1,0.4,0.2,0.8,0.4,1.2h-1.7
			C255,308.4,254.9,308,254.8,307.5z M254.7,303.9c-0.6,0.2-1.5,0.5-2.7,0.6c-0.7,0.1-1.2,0.2-1.4,0.3s-0.5,0.3-0.7,0.5
			c-0.1,0.2-0.2,0.5-0.2,0.8c0,0.4,0.2,0.8,0.5,1.1c0.3,0.3,0.8,0.4,1.5,0.4c0.6,0,1.2-0.1,1.7-0.4c0.5-0.3,0.9-0.7,1.1-1.1
			c0.2-0.4,0.3-0.9,0.3-1.6V303.9z M258,308.7v-1.3l6.2-7.1c-0.7,0-1.3,0.1-1.8,0.1h-3.9v-1.3h7.9v1.1l-5.2,6.1l-1,1.1
			c0.7-0.1,1.4-0.1,2.1-0.1h4.5v1.4H258z M267.6,303.9c0-1.8,0.5-3.1,1.5-4c0.8-0.7,1.8-1.1,3-1.1c1.3,0,2.4,0.4,3.3,1.3
			c0.8,0.9,1.3,2.1,1.3,3.6c0,1.2-0.2,2.2-0.6,2.9c-0.4,0.7-0.9,1.3-1.6,1.7c-0.7,0.4-1.5,0.6-2.3,0.6c-1.4,0-2.4-0.4-3.3-1.3
			C268,306.8,267.6,305.5,267.6,303.9z M269.3,303.9c0,1.2,0.3,2.2,0.8,2.8c0.5,0.6,1.2,0.9,2,0.9c0.8,0,1.5-0.3,2-0.9
			c0.5-0.6,0.8-1.6,0.8-2.8c0-1.2-0.3-2.1-0.8-2.7c-0.5-0.6-1.2-0.9-2-0.9c-0.8,0-1.5,0.3-2,0.9
			C269.5,301.7,269.3,302.6,269.3,303.9z M278.6,308.7v-9.7h1.5v1.4c0.7-1.1,1.7-1.6,3.1-1.6c0.6,0,1.1,0.1,1.6,0.3s0.9,0.5,1.1,0.8
			c0.2,0.3,0.4,0.7,0.5,1.2c0.1,0.3,0.1,0.8,0.1,1.6v6h-1.6v-5.9c0-0.7-0.1-1.2-0.2-1.5c-0.1-0.3-0.3-0.6-0.7-0.8s-0.7-0.3-1.1-0.3
			c-0.7,0-1.3,0.2-1.8,0.7c-0.5,0.4-0.8,1.3-0.8,2.5v5.3H278.6z M296.7,308.7l-3.5-13.4h1.8l2,8.8c0.2,0.9,0.4,1.8,0.6,2.7
			c0.3-1.4,0.5-2.2,0.6-2.5l2.5-9h2.1l1.9,6.8c0.5,1.7,0.8,3.2,1,4.7c0.2-0.8,0.4-1.8,0.7-2.9l2.1-8.6h1.8l-3.7,13.4h-1.7l-2.8-10.2
			c-0.2-0.9-0.4-1.4-0.4-1.6c-0.1,0.6-0.3,1.1-0.4,1.6l-2.8,10.2H296.7z M318,305.6l1.7,0.2c-0.3,1-0.8,1.8-1.5,2.3
			c-0.7,0.5-1.6,0.8-2.8,0.8c-1.4,0-2.5-0.4-3.4-1.3c-0.8-0.9-1.2-2.1-1.2-3.7c0-1.6,0.4-2.9,1.2-3.8c0.8-0.9,1.9-1.3,3.3-1.3
			c1.3,0,2.3,0.4,3.2,1.3c0.8,0.9,1.2,2.1,1.2,3.7c0,0.1,0,0.2,0,0.4h-7.2c0.1,1.1,0.4,1.9,0.9,2.5c0.5,0.6,1.2,0.8,2,0.8
			c0.6,0,1.1-0.2,1.5-0.5C317.4,306.8,317.8,306.3,318,305.6z M312.6,303h5.4c-0.1-0.8-0.3-1.4-0.6-1.8c-0.5-0.6-1.2-1-2-1
			c-0.8,0-1.4,0.3-1.9,0.8C313,301.4,312.7,302.1,312.6,303z M323.3,308.7h-1.5v-13.4h1.6v4.8c0.7-0.9,1.6-1.3,2.7-1.3
			c0.6,0,1.2,0.1,1.7,0.4s1,0.6,1.3,1c0.3,0.4,0.6,0.9,0.8,1.6c0.2,0.6,0.3,1.3,0.3,2c0,1.7-0.4,2.9-1.2,3.8c-0.8,0.9-1.8,1.4-3,1.4
			c-1.1,0-2-0.5-2.7-1.4V308.7z M323.3,303.8c0,1.2,0.2,2,0.5,2.5c0.5,0.8,1.2,1.3,2.1,1.3c0.7,0,1.3-0.3,1.9-0.9s0.8-1.6,0.8-2.8
			c0-1.3-0.2-2.2-0.8-2.8s-1.1-0.9-1.8-0.9c-0.7,0-1.3,0.3-1.9,0.9C323.5,301.7,323.3,302.6,323.3,303.8z M337,304.4l1.7-0.1
			c0.1,0.7,0.3,1.2,0.5,1.6c0.3,0.4,0.7,0.8,1.3,1c0.6,0.3,1.3,0.4,2.1,0.4c0.7,0,1.3-0.1,1.8-0.3c0.5-0.2,0.9-0.5,1.2-0.8
			c0.3-0.4,0.4-0.7,0.4-1.2c0-0.4-0.1-0.8-0.4-1.1c-0.2-0.3-0.6-0.6-1.2-0.8c-0.4-0.1-1.2-0.3-2.4-0.6c-1.2-0.3-2.1-0.6-2.6-0.8
			c-0.6-0.3-1.1-0.7-1.4-1.2c-0.3-0.5-0.5-1.1-0.5-1.7c0-0.7,0.2-1.3,0.6-1.9c0.4-0.6,0.9-1,1.7-1.3c0.7-0.3,1.6-0.5,2.5-0.5
			c1,0,1.9,0.2,2.6,0.5c0.8,0.3,1.3,0.8,1.8,1.4c0.4,0.6,0.6,1.3,0.7,2.1l-1.7,0.1c-0.1-0.8-0.4-1.5-0.9-1.9
			c-0.5-0.4-1.3-0.7-2.3-0.7c-1.1,0-1.9,0.2-2.3,0.6s-0.7,0.9-0.7,1.4c0,0.5,0.2,0.9,0.5,1.2c0.3,0.3,1.2,0.6,2.7,1
			c1.4,0.3,2.4,0.6,3,0.8c0.8,0.4,1.4,0.8,1.7,1.4c0.4,0.6,0.6,1.2,0.6,1.9c0,0.7-0.2,1.4-0.6,2c-0.4,0.6-1,1.1-1.8,1.5
			c-0.8,0.3-1.6,0.5-2.6,0.5c-1.2,0-2.2-0.2-3-0.5c-0.8-0.4-1.5-0.9-1.9-1.6C337.2,306.1,337,305.3,337,304.4z M356.4,305.6l1.7,0.2
			c-0.3,1-0.8,1.8-1.5,2.3c-0.7,0.5-1.6,0.8-2.8,0.8c-1.4,0-2.5-0.4-3.4-1.3c-0.8-0.9-1.2-2.1-1.2-3.7c0-1.6,0.4-2.9,1.2-3.8
			c0.8-0.9,1.9-1.3,3.3-1.3c1.3,0,2.3,0.4,3.2,1.3c0.8,0.9,1.2,2.1,1.2,3.7c0,0.1,0,0.2,0,0.4h-7.2c0.1,1.1,0.4,1.9,0.9,2.5
			c0.5,0.6,1.2,0.8,2,0.8c0.6,0,1.1-0.2,1.5-0.5C355.8,306.8,356.2,306.3,356.4,305.6z M351,303h5.4c-0.1-0.8-0.3-1.4-0.6-1.8
			c-0.5-0.6-1.2-1-2-1c-0.8,0-1.4,0.3-1.9,0.8C351.4,301.4,351.1,302.1,351,303z M360.1,308.7v-9.7h1.5v1.5c0.4-0.7,0.7-1.1,1-1.4
			c0.3-0.2,0.7-0.3,1.1-0.3c0.6,0,1.1,0.2,1.7,0.5l-0.6,1.5c-0.4-0.2-0.8-0.4-1.2-0.4c-0.4,0-0.7,0.1-1,0.3s-0.5,0.5-0.6,0.9
			c-0.2,0.6-0.3,1.2-0.3,1.9v5.1H360.1z M369.1,308.7l-3.7-9.7h1.7l2.1,5.8c0.2,0.6,0.4,1.3,0.6,1.9c0.1-0.5,0.3-1.1,0.6-1.8
			l2.1-5.9h1.7l-3.7,9.7H369.1z M375.7,297.3v-1.9h1.6v1.9H375.7z M375.7,308.7v-9.7h1.6v9.7H375.7z M386.2,305.2l1.6,0.2
			c-0.2,1.1-0.6,2-1.4,2.6c-0.7,0.6-1.6,0.9-2.7,0.9c-1.3,0-2.4-0.4-3.2-1.3c-0.8-0.9-1.2-2.1-1.2-3.7c0-1.1,0.2-2,0.5-2.8
			s0.9-1.4,1.6-1.8c0.7-0.4,1.5-0.6,2.3-0.6c1.1,0,1.9,0.3,2.6,0.8c0.7,0.5,1.1,1.3,1.3,2.3l-1.6,0.2c-0.2-0.6-0.4-1.1-0.8-1.5
			c-0.4-0.3-0.8-0.5-1.4-0.5c-0.8,0-1.5,0.3-2,0.9c-0.5,0.6-0.8,1.5-0.8,2.8c0,1.3,0.2,2.2,0.8,2.8c0.5,0.6,1.2,0.9,2,0.9
			c0.6,0,1.2-0.2,1.6-0.6C385.8,306.6,386,306,386.2,305.2z M395.8,305.6l1.7,0.2c-0.3,1-0.8,1.8-1.5,2.3c-0.7,0.5-1.6,0.8-2.8,0.8
			c-1.4,0-2.5-0.4-3.4-1.3c-0.8-0.9-1.2-2.1-1.2-3.7c0-1.6,0.4-2.9,1.2-3.8c0.8-0.9,1.9-1.3,3.3-1.3c1.3,0,2.3,0.4,3.2,1.3
			c0.8,0.9,1.2,2.1,1.2,3.7c0,0.1,0,0.2,0,0.4h-7.2c0.1,1.1,0.4,1.9,0.9,2.5c0.5,0.6,1.2,0.8,2,0.8c0.6,0,1.1-0.2,1.5-0.5
			C395.2,306.8,395.6,306.3,395.8,305.6z M390.4,303h5.4c-0.1-0.8-0.3-1.4-0.6-1.8c-0.5-0.6-1.2-1-2-1c-0.8,0-1.4,0.3-1.9,0.8
			C390.7,301.4,390.5,302.1,390.4,303z M398.9,305.8l1.6-0.2c0.1,0.6,0.3,1.1,0.8,1.5c0.4,0.3,1,0.5,1.8,0.5c0.8,0,1.3-0.2,1.7-0.5
			c0.4-0.3,0.5-0.7,0.5-1.1c0-0.4-0.2-0.7-0.5-0.9c-0.2-0.1-0.8-0.3-1.7-0.5c-1.2-0.3-2-0.6-2.5-0.8c-0.5-0.2-0.8-0.5-1-0.9
			c-0.2-0.4-0.4-0.8-0.4-1.3c0-0.4,0.1-0.8,0.3-1.2c0.2-0.4,0.5-0.7,0.8-0.9c0.3-0.2,0.6-0.3,1-0.5c0.4-0.1,0.9-0.2,1.4-0.2
			c0.8,0,1.4,0.1,2,0.3c0.6,0.2,1,0.5,1.3,0.9c0.3,0.4,0.5,0.9,0.6,1.5l-1.6,0.2c-0.1-0.5-0.3-0.9-0.6-1.2c-0.3-0.3-0.8-0.4-1.5-0.4
			c-0.8,0-1.3,0.1-1.6,0.4c-0.3,0.2-0.5,0.5-0.5,0.9c0,0.2,0.1,0.4,0.2,0.6c0.1,0.2,0.3,0.3,0.6,0.4c0.2,0.1,0.6,0.2,1.4,0.4
			c1.2,0.3,2,0.6,2.4,0.8c0.5,0.2,0.8,0.5,1.1,0.9c0.3,0.4,0.4,0.8,0.4,1.4c0,0.6-0.2,1.1-0.5,1.5c-0.3,0.5-0.8,0.9-1.4,1.1
			c-0.6,0.3-1.3,0.4-2,0.4c-1.2,0-2.2-0.3-2.9-0.8C399.5,307.6,399.1,306.9,398.9,305.8z M417.2,312.7c-0.9-1.1-1.7-2.5-2.3-4
			s-0.9-3.1-0.9-4.8c0-1.4,0.2-2.8,0.7-4.1c0.6-1.5,1.4-3.1,2.5-4.6h1.2c-0.7,1.3-1.2,2.2-1.5,2.7c-0.4,0.8-0.7,1.7-0.9,2.6
			c-0.3,1.1-0.4,2.3-0.4,3.4c0,2.9,0.9,5.8,2.7,8.8H417.2z M419,308.7l5.1-13.4h1.9l5.5,13.4h-2l-1.5-4h-5.6l-1.5,4H419z
			 M422.9,303.2h4.5l-1.4-3.7c-0.4-1.1-0.7-2-0.9-2.8c-0.2,0.9-0.4,1.7-0.7,2.5L422.9,303.2z M434.6,308.7l-3.5-13.4h1.8l2,8.8
			c0.2,0.9,0.4,1.8,0.6,2.7c0.3-1.4,0.5-2.2,0.6-2.5l2.5-9h2.1l1.9,6.8c0.5,1.7,0.8,3.2,1,4.7c0.2-0.8,0.4-1.8,0.7-2.9l2.1-8.6h1.8
			l-3.7,13.4h-1.7l-2.8-10.2c-0.2-0.9-0.4-1.4-0.4-1.6c-0.1,0.6-0.3,1.1-0.4,1.6l-2.8,10.2H434.6z M449.2,304.4l1.7-0.1
			c0.1,0.7,0.3,1.2,0.5,1.6c0.3,0.4,0.7,0.8,1.3,1c0.6,0.3,1.3,0.4,2.1,0.4c0.7,0,1.3-0.1,1.8-0.3c0.5-0.2,0.9-0.5,1.2-0.8
			c0.2-0.4,0.4-0.7,0.4-1.2s-0.1-0.8-0.4-1.1c-0.2-0.3-0.6-0.6-1.2-0.8c-0.4-0.1-1.2-0.3-2.4-0.6c-1.2-0.3-2.1-0.6-2.6-0.8
			c-0.6-0.3-1.1-0.7-1.4-1.2c-0.3-0.5-0.5-1.1-0.5-1.7c0-0.7,0.2-1.3,0.6-1.9c0.4-0.6,0.9-1,1.7-1.3c0.7-0.3,1.6-0.5,2.5-0.5
			c1,0,1.9,0.2,2.6,0.5c0.8,0.3,1.3,0.8,1.8,1.4c0.4,0.6,0.6,1.3,0.7,2.1l-1.7,0.1c-0.1-0.8-0.4-1.5-0.9-1.9
			c-0.5-0.4-1.3-0.7-2.3-0.7c-1.1,0-1.9,0.2-2.3,0.6c-0.5,0.4-0.7,0.9-0.7,1.4c0,0.5,0.2,0.9,0.5,1.2c0.3,0.3,1.2,0.6,2.7,1
			c1.4,0.3,2.4,0.6,3,0.8c0.8,0.4,1.4,0.8,1.7,1.4c0.4,0.6,0.6,1.2,0.6,1.9c0,0.7-0.2,1.4-0.6,2c-0.4,0.6-1,1.1-1.8,1.5
			c-0.8,0.3-1.6,0.5-2.6,0.5c-1.2,0-2.2-0.2-3-0.5c-0.8-0.4-1.5-0.9-1.9-1.6C449.5,306.1,449.3,305.3,449.2,304.4z M463.2,312.7H462
			c1.8-2.9,2.7-5.8,2.7-8.8c0-1.1-0.1-2.3-0.4-3.4c-0.2-0.9-0.5-1.8-0.9-2.6c-0.2-0.6-0.7-1.5-1.5-2.7h1.2c1.1,1.5,2,3.1,2.5,4.6
			c0.5,1.3,0.7,2.7,0.7,4.1c0,1.6-0.3,3.2-0.9,4.8C464.8,310.2,464.1,311.5,463.2,312.7z"/>
		<path d="M200.6,319.3v-1.9h1.6v1.9H200.6z M200.6,330.7v-9.7h1.6v9.7H200.6z M204.8,330.7v-9.7h1.5v1.4c0.7-1.1,1.7-1.6,3.1-1.6
			c0.6,0,1.1,0.1,1.6,0.3s0.9,0.5,1.1,0.8c0.2,0.3,0.4,0.7,0.5,1.2c0.1,0.3,0.1,0.8,0.1,1.6v6H211v-5.9c0-0.7-0.1-1.2-0.2-1.5
			c-0.1-0.3-0.3-0.6-0.7-0.8s-0.7-0.3-1.1-0.3c-0.7,0-1.3,0.2-1.8,0.7c-0.5,0.4-0.8,1.3-0.8,2.5v5.3H204.8z M214.5,327.8l1.6-0.2
			c0.1,0.6,0.3,1.1,0.8,1.5c0.4,0.3,1,0.5,1.8,0.5s1.3-0.2,1.7-0.5c0.4-0.3,0.5-0.7,0.5-1.1c0-0.4-0.2-0.7-0.5-0.9
			c-0.2-0.1-0.8-0.3-1.7-0.5c-1.2-0.3-2-0.6-2.5-0.8c-0.5-0.2-0.8-0.5-1-0.9c-0.2-0.4-0.4-0.8-0.4-1.3c0-0.4,0.1-0.8,0.3-1.2
			c0.2-0.4,0.5-0.7,0.8-0.9c0.2-0.2,0.6-0.3,1-0.5c0.4-0.1,0.9-0.2,1.4-0.2c0.8,0,1.4,0.1,2,0.3c0.6,0.2,1,0.5,1.3,0.9
			c0.3,0.4,0.5,0.9,0.6,1.5l-1.6,0.2c-0.1-0.5-0.3-0.9-0.6-1.2c-0.3-0.3-0.8-0.4-1.5-0.4c-0.8,0-1.3,0.1-1.6,0.4
			c-0.3,0.2-0.5,0.5-0.5,0.9c0,0.2,0.1,0.4,0.2,0.6c0.1,0.2,0.3,0.3,0.6,0.4c0.2,0.1,0.6,0.2,1.4,0.4c1.2,0.3,2,0.6,2.4,0.8
			c0.5,0.2,0.8,0.5,1.1,0.9c0.3,0.4,0.4,0.8,0.4,1.4c0,0.6-0.2,1.1-0.5,1.5c-0.3,0.5-0.8,0.9-1.4,1.1c-0.6,0.3-1.3,0.4-2,0.4
			c-1.2,0-2.2-0.3-2.9-0.8C215.1,329.6,214.7,328.9,214.5,327.8z M224.5,319.3v-1.9h1.6v1.9H224.5z M224.5,330.7v-9.7h1.6v9.7H224.5
			z M234.9,330.7v-1.2c-0.6,1-1.5,1.4-2.7,1.4c-0.8,0-1.5-0.2-2.1-0.6c-0.6-0.4-1.1-1-1.5-1.8c-0.4-0.8-0.5-1.6-0.5-2.6
			c0-1,0.2-1.8,0.5-2.6c0.3-0.8,0.8-1.4,1.4-1.8c0.6-0.4,1.4-0.6,2.2-0.6c0.6,0,1.1,0.1,1.5,0.4c0.5,0.2,0.8,0.6,1.1,1v-4.8h1.6
			v13.4H234.9z M229.7,325.9c0,1.2,0.3,2.2,0.8,2.8c0.5,0.6,1.1,0.9,1.8,0.9c0.7,0,1.3-0.3,1.8-0.9c0.5-0.6,0.8-1.5,0.8-2.7
			c0-1.3-0.3-2.3-0.8-2.9c-0.5-0.6-1.1-0.9-1.9-0.9c-0.7,0-1.3,0.3-1.8,0.9C230,323.7,229.7,324.6,229.7,325.9z M245.6,327.6
			l1.7,0.2c-0.3,1-0.8,1.8-1.5,2.3c-0.7,0.5-1.6,0.8-2.8,0.8c-1.4,0-2.5-0.4-3.4-1.3c-0.8-0.9-1.2-2.1-1.2-3.7
			c0-1.6,0.4-2.9,1.2-3.8c0.8-0.9,1.9-1.3,3.3-1.3c1.3,0,2.3,0.4,3.2,1.3c0.8,0.9,1.2,2.1,1.2,3.7c0,0.1,0,0.2,0,0.4h-7.2
			c0.1,1.1,0.4,1.9,0.9,2.5c0.5,0.6,1.2,0.8,2,0.8c0.6,0,1.1-0.2,1.5-0.5C245,328.8,245.4,328.3,245.6,327.6z M240.2,325h5.4
			c-0.1-0.8-0.3-1.4-0.6-1.8c-0.5-0.6-1.2-1-2-1c-0.8,0-1.4,0.3-1.9,0.8C240.6,323.4,240.3,324.1,240.2,325z M258.6,330.7l-5.2-13.4
			h1.9l3.5,9.7c0.3,0.8,0.5,1.5,0.7,2.2c0.2-0.7,0.4-1.5,0.7-2.2l3.6-9.7h1.8l-5.2,13.4H258.6z M264.3,330.7l5.1-13.4h1.9l5.5,13.4
			h-2l-1.5-4h-5.6l-1.5,4H264.3z M268.2,325.2h4.5l-1.4-3.7c-0.4-1.1-0.7-2-0.9-2.8c-0.2,0.9-0.4,1.7-0.7,2.5L268.2,325.2z
			 M282.4,330.7v-13.4h9.7v1.6h-7.9v4.1h7.4v1.6h-7.4v4.5h8.2v1.6H282.4z M294.6,330.7v-9.7h1.5v1.4c0.7-1.1,1.7-1.6,3.1-1.6
			c0.6,0,1.1,0.1,1.6,0.3c0.5,0.2,0.9,0.5,1.1,0.8c0.2,0.3,0.4,0.7,0.5,1.2c0.1,0.3,0.1,0.8,0.1,1.6v6h-1.6v-5.9
			c0-0.7-0.1-1.2-0.2-1.5c-0.1-0.3-0.3-0.6-0.7-0.8c-0.3-0.2-0.7-0.3-1.1-0.3c-0.7,0-1.3,0.2-1.8,0.7c-0.5,0.4-0.8,1.3-0.8,2.5v5.3
			H294.6z M308.6,329.3l0.2,1.5c-0.5,0.1-0.9,0.1-1.2,0.1c-0.6,0-1.1-0.1-1.4-0.3c-0.3-0.2-0.6-0.4-0.7-0.7c-0.1-0.3-0.2-1-0.2-1.9
			v-5.6h-1.2v-1.3h1.2v-2.4l1.6-1v3.4h1.7v1.3h-1.7v5.7c0,0.5,0,0.8,0.1,0.9c0.1,0.1,0.2,0.2,0.3,0.3c0.1,0.1,0.3,0.1,0.6,0.1
			C308.1,329.3,308.3,329.3,308.6,329.3z M316.8,327.6l1.7,0.2c-0.3,1-0.8,1.8-1.5,2.3c-0.7,0.5-1.6,0.8-2.8,0.8
			c-1.4,0-2.5-0.4-3.4-1.3c-0.8-0.9-1.2-2.1-1.2-3.7c0-1.6,0.4-2.9,1.2-3.8c0.8-0.9,1.9-1.3,3.3-1.3c1.3,0,2.3,0.4,3.2,1.3
			c0.8,0.9,1.2,2.1,1.2,3.7c0,0.1,0,0.2,0,0.4h-7.2c0.1,1.1,0.4,1.9,0.9,2.5c0.5,0.6,1.2,0.8,2,0.8c0.6,0,1.1-0.2,1.5-0.5
			C316.2,328.8,316.6,328.3,316.8,327.6z M311.4,325h5.4c-0.1-0.8-0.3-1.4-0.6-1.8c-0.5-0.6-1.2-1-2-1c-0.8,0-1.4,0.3-1.9,0.8
			C311.8,323.4,311.5,324.1,311.4,325z M320.6,330.7v-9.7h1.5v1.5c0.4-0.7,0.7-1.1,1-1.4c0.3-0.2,0.7-0.3,1.1-0.3
			c0.6,0,1.1,0.2,1.7,0.5l-0.6,1.5c-0.4-0.2-0.8-0.4-1.2-0.4c-0.4,0-0.7,0.1-1,0.3s-0.5,0.5-0.6,0.9c-0.2,0.6-0.3,1.2-0.3,1.9v5.1
			H320.6z M326.8,334.4v-13.4h1.5v1.2c0.4-0.5,0.8-0.9,1.2-1.1c0.4-0.2,1-0.4,1.6-0.4c0.8,0,1.5,0.2,2.2,0.6c0.6,0.4,1.1,1,1.4,1.8
			c0.3,0.8,0.5,1.6,0.5,2.5c0,1-0.2,1.9-0.5,2.7s-0.9,1.4-1.5,1.8c-0.7,0.4-1.4,0.6-2.1,0.6c-0.5,0-1-0.1-1.5-0.3s-0.8-0.5-1.1-0.9
			v4.7H326.8z M328.3,325.9c0,1.2,0.2,2.2,0.8,2.8c0.5,0.6,1.1,0.9,1.8,0.9c0.7,0,1.4-0.3,1.9-0.9c0.5-0.6,0.8-1.6,0.8-2.9
			c0-1.2-0.3-2.2-0.8-2.8c-0.5-0.6-1.1-0.9-1.8-0.9c-0.7,0-1.3,0.3-1.9,1C328.5,323.7,328.3,324.7,328.3,325.9z M337.2,330.7v-9.7
			h1.5v1.5c0.4-0.7,0.7-1.1,1-1.4c0.3-0.2,0.7-0.3,1.1-0.3c0.6,0,1.1,0.2,1.7,0.5l-0.6,1.5c-0.4-0.2-0.8-0.4-1.2-0.4
			c-0.4,0-0.7,0.1-1,0.3s-0.5,0.5-0.6,0.9c-0.2,0.6-0.3,1.2-0.3,1.9v5.1H337.2z M343.4,319.3v-1.9h1.6v1.9H343.4z M343.4,330.7v-9.7
			h1.6v9.7H343.4z M346.9,327.8l1.6-0.2c0.1,0.6,0.3,1.1,0.8,1.5c0.4,0.3,1,0.5,1.8,0.5s1.3-0.2,1.7-0.5c0.4-0.3,0.5-0.7,0.5-1.1
			c0-0.4-0.2-0.7-0.5-0.9c-0.2-0.1-0.8-0.3-1.7-0.5c-1.2-0.3-2-0.6-2.5-0.8c-0.5-0.2-0.8-0.5-1-0.9c-0.2-0.4-0.4-0.8-0.4-1.3
			c0-0.4,0.1-0.8,0.3-1.2c0.2-0.4,0.5-0.7,0.8-0.9c0.2-0.2,0.6-0.3,1-0.5c0.4-0.1,0.9-0.2,1.4-0.2c0.8,0,1.4,0.1,2,0.3
			s1,0.5,1.3,0.9c0.3,0.4,0.5,0.9,0.6,1.5l-1.6,0.2c-0.1-0.5-0.3-0.9-0.6-1.2c-0.3-0.3-0.8-0.4-1.5-0.4c-0.8,0-1.3,0.1-1.6,0.4
			c-0.3,0.2-0.5,0.5-0.5,0.9c0,0.2,0.1,0.4,0.2,0.6c0.1,0.2,0.3,0.3,0.6,0.4c0.2,0.1,0.6,0.2,1.4,0.4c1.2,0.3,2,0.6,2.4,0.8
			s0.8,0.5,1.1,0.9s0.4,0.8,0.4,1.4c0,0.6-0.2,1.1-0.5,1.5c-0.3,0.5-0.8,0.9-1.4,1.1c-0.6,0.3-1.3,0.4-2,0.4c-1.2,0-2.2-0.3-2.9-0.8
			C347.5,329.6,347,328.9,346.9,327.8z M363.5,327.6l1.7,0.2c-0.3,1-0.8,1.8-1.5,2.3c-0.7,0.5-1.6,0.8-2.8,0.8
			c-1.4,0-2.5-0.4-3.4-1.3c-0.8-0.9-1.2-2.1-1.2-3.7c0-1.6,0.4-2.9,1.2-3.8c0.8-0.9,1.9-1.3,3.3-1.3c1.3,0,2.3,0.4,3.2,1.3
			c0.8,0.9,1.2,2.1,1.2,3.7c0,0.1,0,0.2,0,0.4H358c0.1,1.1,0.4,1.9,0.9,2.5c0.5,0.6,1.2,0.8,2,0.8c0.6,0,1.1-0.2,1.5-0.5
			C362.9,328.8,363.2,328.3,363.5,327.6z M358.1,325h5.4c-0.1-0.8-0.3-1.4-0.6-1.8c-0.5-0.6-1.2-1-2-1c-0.8,0-1.4,0.3-1.9,0.8
			C358.4,323.4,358.1,324.1,358.1,325z M382.1,326l1.8,0.5c-0.4,1.4-1,2.6-2,3.3c-1,0.8-2.1,1.1-3.5,1.1c-1.4,0-2.6-0.3-3.5-0.9
			c-0.9-0.6-1.6-1.4-2.1-2.5c-0.5-1.1-0.7-2.3-0.7-3.6c0-1.4,0.3-2.6,0.8-3.6c0.5-1,1.3-1.8,2.3-2.4c1-0.5,2.1-0.8,3.2-0.8
			c1.3,0,2.5,0.3,3.4,1c0.9,0.7,1.6,1.6,1.9,2.9l-1.7,0.4c-0.3-1-0.8-1.7-1.4-2.1c-0.6-0.4-1.3-0.7-2.2-0.7c-1,0-1.9,0.2-2.6,0.7
			c-0.7,0.5-1.2,1.2-1.5,2c-0.3,0.8-0.4,1.7-0.4,2.6c0,1.1,0.2,2.1,0.5,3c0.3,0.8,0.8,1.5,1.5,1.9c0.7,0.4,1.5,0.6,2.3,0.6
			c1,0,1.8-0.3,2.5-0.9C381.4,328,381.9,327.2,382.1,326z M385.8,330.7v-13.4h1.6v13.4H385.8z M389.4,325.9c0-1.8,0.5-3.1,1.5-4
			c0.8-0.7,1.8-1.1,3-1.1c1.3,0,2.4,0.4,3.3,1.3c0.8,0.9,1.3,2.1,1.3,3.6c0,1.2-0.2,2.2-0.6,2.9c-0.4,0.7-0.9,1.3-1.6,1.7
			c-0.7,0.4-1.5,0.6-2.3,0.6c-1.4,0-2.4-0.4-3.3-1.3C389.8,328.8,389.4,327.5,389.4,325.9z M391.1,325.9c0,1.2,0.3,2.2,0.8,2.8
			c0.5,0.6,1.2,0.9,2,0.9c0.8,0,1.5-0.3,2-0.9c0.5-0.6,0.8-1.6,0.8-2.8c0-1.2-0.3-2.1-0.8-2.7c-0.5-0.6-1.2-0.9-2-0.9
			c-0.8,0-1.5,0.3-2,0.9C391.4,323.7,391.1,324.6,391.1,325.9z M406.7,330.7v-1.4c-0.8,1.1-1.8,1.6-3.1,1.6c-0.6,0-1.1-0.1-1.6-0.3
			c-0.5-0.2-0.9-0.5-1.1-0.8s-0.4-0.7-0.5-1.2c-0.1-0.3-0.1-0.8-0.1-1.5v-6h1.6v5.4c0,0.9,0,1.4,0.1,1.7c0.1,0.4,0.3,0.8,0.7,1
			s0.7,0.4,1.2,0.4s0.9-0.1,1.4-0.4c0.4-0.3,0.7-0.6,0.9-1c0.2-0.4,0.3-1.1,0.3-1.9v-5.2h1.6v9.7H406.7z M417,330.7v-1.2
			c-0.6,1-1.5,1.4-2.7,1.4c-0.8,0-1.5-0.2-2.1-0.6s-1.1-1-1.5-1.8s-0.5-1.6-0.5-2.6c0-1,0.2-1.8,0.5-2.6c0.3-0.8,0.8-1.4,1.4-1.8
			c0.6-0.4,1.4-0.6,2.2-0.6c0.6,0,1.1,0.1,1.5,0.4c0.5,0.2,0.8,0.6,1.1,1v-4.8h1.6v13.4H417z M411.9,325.9c0,1.2,0.3,2.2,0.8,2.8
			s1.1,0.9,1.8,0.9c0.7,0,1.3-0.3,1.8-0.9c0.5-0.6,0.8-1.5,0.8-2.7c0-1.3-0.3-2.3-0.8-2.9c-0.5-0.6-1.1-0.9-1.9-0.9
			c-0.7,0-1.3,0.3-1.8,0.9S411.9,324.6,411.9,325.9z M429.5,334.7c-0.9-1.1-1.7-2.5-2.3-4c-0.6-1.5-0.9-3.1-0.9-4.8
			c0-1.4,0.2-2.8,0.7-4.1c0.6-1.5,1.4-3.1,2.5-4.6h1.2c-0.7,1.3-1.2,2.2-1.5,2.7c-0.4,0.8-0.7,1.7-0.9,2.6c-0.3,1.1-0.4,2.3-0.4,3.4
			c0,2.9,0.9,5.8,2.7,8.8H429.5z M436.6,330.7l-5.2-13.4h1.9l3.5,9.7c0.3,0.8,0.5,1.5,0.7,2.2c0.2-0.7,0.4-1.5,0.7-2.2l3.6-9.7h1.8
			l-5.2,13.4H436.6z M442.3,330.7l5.1-13.4h1.9l5.5,13.4h-2l-1.5-4h-5.6l-1.5,4H442.3z M446.2,325.2h4.5l-1.4-3.7
			c-0.4-1.1-0.7-2-0.9-2.8c-0.2,0.9-0.4,1.7-0.7,2.5L446.2,325.2z M456.3,330.7v-13.4h9.7v1.6h-7.9v4.1h7.4v1.6h-7.4v4.5h8.2v1.6
			H456.3z M478.2,326l1.8,0.5c-0.4,1.4-1,2.6-2,3.3c-1,0.8-2.1,1.1-3.5,1.1c-1.4,0-2.6-0.3-3.5-0.9c-0.9-0.6-1.6-1.4-2.1-2.5
			c-0.5-1.1-0.7-2.3-0.7-3.6c0-1.4,0.3-2.6,0.8-3.6c0.5-1,1.3-1.8,2.3-2.4c1-0.5,2.1-0.8,3.2-0.8c1.3,0,2.5,0.3,3.4,1
			c0.9,0.7,1.6,1.6,1.9,2.9l-1.7,0.4c-0.3-1-0.8-1.7-1.4-2.1c-0.6-0.4-1.3-0.7-2.2-0.7c-1,0-1.9,0.2-2.6,0.7s-1.2,1.2-1.5,2
			c-0.3,0.8-0.4,1.7-0.4,2.6c0,1.1,0.2,2.1,0.5,3c0.3,0.8,0.8,1.5,1.5,1.9c0.7,0.4,1.5,0.6,2.3,0.6c1,0,1.8-0.3,2.5-0.9
			S478,327.2,478.2,326z M483.1,334.7h-1.2c1.8-2.9,2.7-5.8,2.7-8.8c0-1.1-0.1-2.3-0.4-3.4c-0.2-0.9-0.5-1.8-0.9-2.6
			c-0.2-0.6-0.7-1.5-1.5-2.7h1.2c1.1,1.5,2,3.1,2.5,4.6c0.5,1.3,0.7,2.7,0.7,4.1c0,1.6-0.3,3.2-0.9,4.8S483.9,333.5,483.1,334.7z"/>
		<path d="M287.6,347.5v-1.6h5.7v5c-0.9,0.7-1.8,1.2-2.7,1.6c-0.9,0.3-1.9,0.5-2.8,0.5c-1.3,0-2.5-0.3-3.6-0.8
			c-1.1-0.6-1.9-1.4-2.4-2.4c-0.5-1.1-0.8-2.3-0.8-3.6c0-1.3,0.3-2.5,0.8-3.6c0.5-1.1,1.3-2,2.3-2.5c1-0.6,2.2-0.8,3.5-0.8
			c1,0,1.8,0.2,2.6,0.5s1.4,0.8,1.8,1.3c0.4,0.6,0.8,1.3,1,2.2l-1.6,0.4c-0.2-0.7-0.4-1.2-0.8-1.6c-0.3-0.4-0.7-0.7-1.3-0.9
			s-1.2-0.3-1.8-0.3c-0.8,0-1.5,0.1-2.1,0.4c-0.6,0.2-1.1,0.6-1.4,1c-0.4,0.4-0.6,0.8-0.8,1.3c-0.3,0.8-0.5,1.7-0.5,2.7
			c0,1.2,0.2,2.2,0.6,3c0.4,0.8,1,1.4,1.8,1.8c0.8,0.4,1.6,0.6,2.5,0.6c0.8,0,1.5-0.1,2.2-0.4c0.7-0.3,1.3-0.6,1.7-1v-2.5H287.6z
			 M295,347.9c0-1.8,0.5-3.1,1.5-4c0.8-0.7,1.8-1.1,3-1.1c1.3,0,2.4,0.4,3.3,1.3c0.8,0.9,1.3,2.1,1.3,3.6c0,1.2-0.2,2.2-0.6,2.9
			c-0.4,0.7-0.9,1.3-1.6,1.7c-0.7,0.4-1.5,0.6-2.3,0.6c-1.4,0-2.4-0.4-3.3-1.3C295.5,350.8,295,349.5,295,347.9z M296.7,347.9
			c0,1.2,0.3,2.2,0.8,2.8c0.5,0.6,1.2,0.9,2,0.9c0.8,0,1.5-0.3,2-0.9c0.5-0.6,0.8-1.6,0.8-2.8c0-1.2-0.3-2.1-0.8-2.7
			c-0.5-0.6-1.2-0.9-2-0.9c-0.8,0-1.5,0.3-2,0.9C297,345.7,296.7,346.6,296.7,347.9z M308.7,352.7l-3.7-9.7h1.7l2.1,5.8
			c0.2,0.6,0.4,1.3,0.6,1.9c0.1-0.5,0.3-1.1,0.6-1.8l2.1-5.9h1.7l-3.7,9.7H308.7z M325.1,348l1.8,0.5c-0.4,1.4-1,2.6-2,3.3
			c-1,0.8-2.1,1.1-3.5,1.1c-1.4,0-2.6-0.3-3.5-0.9c-0.9-0.6-1.6-1.4-2.1-2.5c-0.5-1.1-0.7-2.3-0.7-3.6c0-1.4,0.3-2.6,0.8-3.6
			c0.5-1,1.3-1.8,2.3-2.4c1-0.5,2.1-0.8,3.2-0.8c1.3,0,2.5,0.3,3.4,1c0.9,0.7,1.6,1.6,1.9,2.9l-1.7,0.4c-0.3-1-0.8-1.7-1.4-2.1
			c-0.6-0.4-1.3-0.7-2.2-0.7c-1,0-1.9,0.2-2.6,0.7c-0.7,0.5-1.2,1.2-1.5,2c-0.3,0.8-0.4,1.7-0.4,2.6c0,1.1,0.2,2.1,0.5,3
			c0.3,0.8,0.8,1.5,1.5,1.9c0.7,0.4,1.5,0.6,2.3,0.6c1,0,1.8-0.3,2.5-0.9C324.4,350,324.9,349.2,325.1,348z M328.8,352.7v-13.4h1.6
			v13.4H328.8z M332.4,347.9c0-1.8,0.5-3.1,1.5-4c0.8-0.7,1.8-1.1,3-1.1c1.3,0,2.4,0.4,3.3,1.3c0.8,0.9,1.3,2.1,1.3,3.6
			c0,1.2-0.2,2.2-0.6,2.9c-0.4,0.7-0.9,1.3-1.6,1.7c-0.7,0.4-1.5,0.6-2.3,0.6c-1.4,0-2.4-0.4-3.3-1.3
			C332.8,350.8,332.4,349.5,332.4,347.9z M334.1,347.9c0,1.2,0.3,2.2,0.8,2.8c0.5,0.6,1.2,0.9,2,0.9c0.8,0,1.5-0.3,2-0.9
			c0.5-0.6,0.8-1.6,0.8-2.8c0-1.2-0.3-2.1-0.8-2.7c-0.5-0.6-1.2-0.9-2-0.9c-0.8,0-1.5,0.3-2,0.9
			C334.3,345.7,334.1,346.6,334.1,347.9z M349.7,352.7v-1.4c-0.8,1.1-1.8,1.6-3.1,1.6c-0.6,0-1.1-0.1-1.6-0.3
			c-0.5-0.2-0.9-0.5-1.1-0.8c-0.2-0.3-0.4-0.7-0.5-1.2c-0.1-0.3-0.1-0.8-0.1-1.5v-6h1.6v5.4c0,0.9,0,1.4,0.1,1.7
			c0.1,0.4,0.3,0.8,0.7,1c0.3,0.2,0.7,0.4,1.2,0.4c0.5,0,0.9-0.1,1.4-0.4c0.4-0.3,0.7-0.6,0.9-1c0.2-0.4,0.3-1.1,0.3-1.9v-5.2h1.6
			v9.7H349.7z M360,352.7v-1.2c-0.6,1-1.5,1.4-2.7,1.4c-0.8,0-1.5-0.2-2.1-0.6c-0.6-0.4-1.1-1-1.5-1.8c-0.4-0.8-0.5-1.6-0.5-2.6
			c0-1,0.2-1.8,0.5-2.6c0.3-0.8,0.8-1.4,1.4-1.8c0.6-0.4,1.4-0.6,2.2-0.6c0.6,0,1.1,0.1,1.5,0.4c0.5,0.2,0.8,0.6,1.1,1v-4.8h1.6
			v13.4H360z M354.8,347.9c0,1.2,0.3,2.2,0.8,2.8c0.5,0.6,1.1,0.9,1.8,0.9c0.7,0,1.3-0.3,1.8-0.9c0.5-0.6,0.8-1.5,0.8-2.7
			c0-1.3-0.3-2.3-0.8-2.9c-0.5-0.6-1.1-0.9-1.9-0.9c-0.7,0-1.3,0.3-1.8,0.9C355.1,345.7,354.8,346.6,354.8,347.9z M369.6,352.7
			v-13.4h1.8v5.5h6.9v-5.5h1.8v13.4h-1.8v-6.3h-6.9v6.3H369.6z M382.8,341.3v-1.9h1.6v1.9H382.8z M382.8,352.7v-9.7h1.6v9.7H382.8z
			 M386.6,353.5l1.6,0.2c0.1,0.5,0.3,0.9,0.6,1.1c0.4,0.3,1,0.5,1.7,0.5c0.8,0,1.3-0.2,1.8-0.5c0.4-0.3,0.7-0.7,0.8-1.3
			c0.1-0.3,0.1-1,0.1-2.1c-0.7,0.8-1.6,1.3-2.7,1.3c-1.3,0-2.4-0.5-3.1-1.4c-0.7-1-1.1-2.1-1.1-3.5c0-0.9,0.2-1.8,0.5-2.6
			c0.3-0.8,0.8-1.4,1.5-1.8c0.6-0.4,1.4-0.6,2.2-0.6c1.1,0,2.1,0.5,2.8,1.4v-1.2h1.5v8.4c0,1.5-0.2,2.6-0.5,3.2
			c-0.3,0.6-0.8,1.1-1.5,1.5c-0.7,0.4-1.5,0.5-2.5,0.5c-1.1,0-2.1-0.3-2.8-0.8C386.9,355.4,386.6,354.6,386.6,353.5z M388,347.7
			c0,1.3,0.2,2.2,0.8,2.8c0.5,0.6,1.1,0.9,1.9,0.9c0.8,0,1.4-0.3,1.9-0.9c0.5-0.6,0.8-1.5,0.8-2.7c0-1.2-0.3-2.1-0.8-2.7
			c-0.5-0.6-1.2-0.9-1.9-0.9c-0.7,0-1.3,0.3-1.9,0.9C388.2,345.7,388,346.5,388,347.7z M397.3,352.7v-13.4h1.6v4.8
			c0.8-0.9,1.7-1.3,2.9-1.3c0.7,0,1.3,0.1,1.9,0.4c0.5,0.3,0.9,0.7,1.1,1.2c0.2,0.5,0.3,1.2,0.3,2.2v6.1h-1.6v-6.1
			c0-0.8-0.2-1.4-0.5-1.8c-0.4-0.4-0.9-0.6-1.5-0.6c-0.5,0-0.9,0.1-1.4,0.4c-0.4,0.2-0.7,0.6-0.9,1c-0.2,0.4-0.3,1-0.3,1.8v5.3
			H397.3z"/>
		<path class="st4" d="M251.2,503.4L251.2,503.4c0-50.8,41.2-92,92-92l0,0c24.4,0,47.8,9.7,65,26.9s26.9,40.6,26.9,65l0,0
			c0,50.8-41.2,92-92,92l0,0C292.4,595.3,251.2,554.2,251.2,503.4z"/>
		<path class="st3" d="M251.2,503.4L251.2,503.4c0-50.8,41.2-92,92-92l0,0c24.4,0,47.8,9.7,65,26.9s26.9,40.6,26.9,65l0,0
			c0,50.8-41.2,92-92,92l0,0C292.4,595.3,251.2,554.2,251.2,503.4z"/>
		<path d="M291.1,477.3v-13.4h1.8v11.8h6.6v1.6H291.1z M301.6,477.3v-13.4h1.8v5.5h6.9v-5.5h1.8v13.4h-1.8V471h-6.9v6.3H301.6z
			 M315.1,477.3v-13.4h4.6c1,0,1.8,0.1,2.4,0.2c0.8,0.2,1.4,0.5,2,1c0.7,0.6,1.2,1.4,1.6,2.3c0.4,0.9,0.5,2,0.5,3.2
			c0,1-0.1,1.9-0.4,2.7c-0.2,0.8-0.5,1.4-0.9,1.9c-0.4,0.5-0.8,0.9-1.2,1.2c-0.4,0.3-1,0.5-1.6,0.7c-0.6,0.1-1.3,0.2-2.1,0.2H315.1z
			 M316.8,475.7h2.9c0.9,0,1.6-0.1,2.1-0.2c0.5-0.2,0.9-0.4,1.2-0.7c0.4-0.4,0.7-1,1-1.7c0.2-0.7,0.4-1.6,0.4-2.6
			c0-1.4-0.2-2.5-0.7-3.2s-1-1.2-1.7-1.5c-0.5-0.2-1.2-0.3-2.3-0.3h-2.8V475.7z M328.8,477.3v-13.4h1.8v13.4H328.8z M338.1,473.3
			v-1.6h5v1.6H338.1z M350.3,477.3v-13.4h9.7v1.6h-7.9v4.1h7.4v1.6h-7.4v4.5h8.2v1.6H350.3z M365.2,477.3l-3.7-9.7h1.7l2.1,5.8
			c0.2,0.6,0.4,1.3,0.6,1.9c0.1-0.5,0.3-1.1,0.6-1.8l2.1-5.9h1.7l-3.7,9.7H365.2z M378.5,474.2l1.7,0.2c-0.3,1-0.8,1.8-1.5,2.3
			c-0.7,0.5-1.6,0.8-2.8,0.8c-1.4,0-2.5-0.4-3.4-1.3c-0.8-0.9-1.2-2.1-1.2-3.7c0-1.6,0.4-2.9,1.2-3.8c0.8-0.9,1.9-1.3,3.3-1.3
			c1.3,0,2.3,0.4,3.2,1.3c0.8,0.9,1.2,2.1,1.2,3.7c0,0.1,0,0.2,0,0.4H373c0.1,1.1,0.4,1.9,0.9,2.5c0.5,0.6,1.2,0.8,2,0.8
			c0.6,0,1.1-0.2,1.5-0.5C377.9,475.4,378.2,474.9,378.5,474.2z M373.1,471.5h5.4c-0.1-0.8-0.3-1.4-0.6-1.8c-0.5-0.6-1.2-1-2-1
			c-0.8,0-1.4,0.3-1.9,0.8C373.4,470,373.1,470.7,373.1,471.5z M382.2,477.3v-9.7h1.5v1.4c0.7-1.1,1.7-1.6,3.1-1.6
			c0.6,0,1.1,0.1,1.6,0.3c0.5,0.2,0.9,0.5,1.1,0.8c0.2,0.3,0.4,0.7,0.5,1.2c0.1,0.3,0.1,0.8,0.1,1.6v6h-1.6v-5.9
			c0-0.7-0.1-1.2-0.2-1.5c-0.1-0.3-0.3-0.6-0.7-0.8c-0.3-0.2-0.7-0.3-1.1-0.3c-0.7,0-1.3,0.2-1.8,0.7c-0.5,0.4-0.8,1.3-0.8,2.5v5.3
			H382.2z M396.2,475.8l0.2,1.5c-0.5,0.1-0.9,0.1-1.2,0.1c-0.6,0-1.1-0.1-1.4-0.3c-0.3-0.2-0.6-0.4-0.7-0.7c-0.1-0.3-0.2-1-0.2-1.9
			v-5.6h-1.2v-1.3h1.2v-2.4l1.6-1v3.4h1.7v1.3h-1.7v5.7c0,0.5,0,0.8,0.1,0.9c0.1,0.1,0.2,0.2,0.3,0.3c0.1,0.1,0.3,0.1,0.6,0.1
			C395.7,475.9,395.9,475.9,396.2,475.8z"/>
		<path d="M297,499.3v-13.4h5c1,0,1.8,0.1,2.5,0.4c0.6,0.3,1.1,0.7,1.4,1.2c0.4,0.6,0.5,1.2,0.5,1.8c0,0.6-0.2,1.1-0.5,1.6
			c-0.3,0.5-0.8,0.9-1.4,1.2c0.8,0.2,1.4,0.6,1.9,1.2c0.4,0.6,0.7,1.2,0.7,2c0,0.6-0.1,1.2-0.4,1.8c-0.3,0.5-0.6,0.9-1,1.2
			c-0.4,0.3-0.9,0.5-1.5,0.7c-0.6,0.1-1.3,0.2-2.2,0.2H297z M298.8,491.5h2.9c0.8,0,1.4,0,1.7-0.1c0.4-0.1,0.8-0.4,1-0.7
			s0.3-0.7,0.3-1.2c0-0.4-0.1-0.8-0.3-1.2c-0.2-0.3-0.5-0.6-0.9-0.7s-1.1-0.2-2-0.2h-2.7V491.5z M298.8,497.7h3.3c0.6,0,1,0,1.2-0.1
			c0.4-0.1,0.7-0.2,1-0.4c0.3-0.2,0.5-0.4,0.7-0.8c0.2-0.3,0.3-0.7,0.3-1.1c0-0.5-0.1-0.9-0.4-1.3c-0.2-0.4-0.6-0.6-1.1-0.8
			c-0.4-0.2-1.1-0.2-2-0.2h-3.1V497.7z M315.6,499.3v-1.4c-0.8,1.1-1.8,1.6-3.1,1.6c-0.6,0-1.1-0.1-1.6-0.3
			c-0.5-0.2-0.9-0.5-1.1-0.8c-0.2-0.3-0.4-0.7-0.5-1.2c-0.1-0.3-0.1-0.8-0.1-1.5v-6h1.6v5.4c0,0.9,0,1.4,0.1,1.7
			c0.1,0.4,0.3,0.8,0.7,1c0.3,0.2,0.7,0.4,1.2,0.4c0.5,0,0.9-0.1,1.4-0.4c0.4-0.3,0.7-0.6,0.9-1c0.2-0.4,0.3-1.1,0.3-1.9v-5.2h1.6
			v9.7H315.6z M319,496.4l1.6-0.2c0.1,0.6,0.3,1.1,0.8,1.5c0.4,0.3,1,0.5,1.8,0.5s1.3-0.2,1.7-0.5c0.4-0.3,0.5-0.7,0.5-1.1
			c0-0.4-0.2-0.7-0.5-0.9c-0.2-0.1-0.8-0.3-1.7-0.5c-1.2-0.3-2-0.6-2.5-0.8c-0.5-0.2-0.8-0.5-1-0.9c-0.2-0.4-0.4-0.8-0.4-1.3
			c0-0.4,0.1-0.8,0.3-1.2c0.2-0.4,0.5-0.7,0.8-0.9c0.2-0.2,0.6-0.3,1-0.5c0.4-0.1,0.9-0.2,1.4-0.2c0.8,0,1.4,0.1,2,0.3
			s1,0.5,1.3,0.9c0.3,0.4,0.5,0.9,0.6,1.5l-1.6,0.2c-0.1-0.5-0.3-0.9-0.6-1.2c-0.3-0.3-0.8-0.4-1.5-0.4c-0.8,0-1.3,0.1-1.6,0.4
			c-0.3,0.2-0.5,0.5-0.5,0.9c0,0.2,0.1,0.4,0.2,0.6c0.1,0.2,0.3,0.3,0.6,0.4c0.2,0.1,0.6,0.2,1.4,0.4c1.2,0.3,2,0.6,2.4,0.8
			c0.5,0.2,0.8,0.5,1.1,0.9s0.4,0.8,0.4,1.4c0,0.6-0.2,1.1-0.5,1.5c-0.3,0.5-0.8,0.9-1.4,1.1c-0.6,0.3-1.3,0.4-2,0.4
			c-1.2,0-2.2-0.3-2.9-0.8C319.6,498.2,319.2,497.4,319,496.4z M329.4,499.3v-1.9h1.9v1.9c0,0.7-0.1,1.2-0.4,1.7
			c-0.2,0.4-0.6,0.8-1.2,1l-0.5-0.7c0.3-0.1,0.6-0.4,0.8-0.7c0.2-0.3,0.3-0.7,0.3-1.3H329.4z M343.4,499.3l-5.2-13.4h1.9l3.5,9.7
			c0.3,0.8,0.5,1.5,0.7,2.2c0.2-0.7,0.4-1.5,0.7-2.2l3.6-9.7h1.8l-5.2,13.4H343.4z M351.5,487.8v-1.9h1.6v1.9H351.5z M351.5,499.3
			v-9.7h1.6v9.7H351.5z M355.6,499.3v-9.7h1.5v1.5c0.4-0.7,0.7-1.1,1-1.4c0.3-0.2,0.7-0.3,1.1-0.3c0.6,0,1.1,0.2,1.7,0.5l-0.6,1.5
			c-0.4-0.2-0.8-0.4-1.2-0.4c-0.4,0-0.7,0.1-1,0.3s-0.5,0.5-0.6,0.9c-0.2,0.6-0.3,1.2-0.3,1.9v5.1H355.6z M365.4,497.8l0.2,1.5
			c-0.5,0.1-0.9,0.1-1.2,0.1c-0.6,0-1.1-0.1-1.4-0.3c-0.3-0.2-0.6-0.4-0.7-0.7c-0.1-0.3-0.2-1-0.2-1.9v-5.6h-1.2v-1.3h1.2v-2.4
			l1.6-1v3.4h1.7v1.3h-1.7v5.7c0,0.5,0,0.8,0.1,0.9c0.1,0.1,0.2,0.2,0.3,0.3c0.1,0.1,0.3,0.1,0.6,0.1
			C364.9,497.9,365.1,497.9,365.4,497.8z M373.4,499.3v-1.4c-0.8,1.1-1.8,1.6-3.1,1.6c-0.6,0-1.1-0.1-1.6-0.3
			c-0.5-0.2-0.9-0.5-1.1-0.8c-0.2-0.3-0.4-0.7-0.5-1.2c-0.1-0.3-0.1-0.8-0.1-1.5v-6h1.6v5.4c0,0.9,0,1.4,0.1,1.7
			c0.1,0.4,0.3,0.8,0.7,1s0.7,0.4,1.2,0.4s0.9-0.1,1.4-0.4c0.4-0.3,0.7-0.6,0.9-1c0.2-0.4,0.3-1.1,0.3-1.9v-5.2h1.6v9.7H373.4z
			 M383.7,498.1c-0.6,0.5-1.2,0.9-1.8,1.1c-0.6,0.2-1.2,0.3-1.8,0.3c-1.1,0-1.9-0.3-2.5-0.8c-0.6-0.5-0.9-1.2-0.9-2
			c0-0.5,0.1-0.9,0.3-1.3c0.2-0.4,0.5-0.7,0.8-0.9c0.4-0.2,0.8-0.4,1.2-0.5c0.3-0.1,0.8-0.2,1.5-0.2c1.3-0.2,2.3-0.3,2.9-0.6
			c0-0.2,0-0.4,0-0.4c0-0.7-0.2-1.1-0.5-1.4c-0.4-0.4-1-0.5-1.9-0.5c-0.8,0-1.3,0.1-1.7,0.4c-0.4,0.3-0.6,0.7-0.8,1.4l-1.6-0.2
			c0.1-0.7,0.4-1.2,0.7-1.6c0.3-0.4,0.8-0.8,1.5-1c0.6-0.2,1.4-0.3,2.2-0.3c0.8,0,1.5,0.1,2,0.3c0.5,0.2,0.9,0.4,1.1,0.7
			c0.2,0.3,0.4,0.7,0.5,1.1c0.1,0.3,0.1,0.8,0.1,1.5v2.2c0,1.5,0,2.5,0.1,2.9c0.1,0.4,0.2,0.8,0.4,1.2h-1.7
			C383.9,499,383.8,498.6,383.7,498.1z M383.6,494.4c-0.6,0.2-1.5,0.5-2.7,0.6c-0.7,0.1-1.2,0.2-1.4,0.3s-0.5,0.3-0.7,0.5
			c-0.1,0.2-0.2,0.5-0.2,0.8c0,0.4,0.2,0.8,0.5,1.1c0.3,0.3,0.8,0.4,1.5,0.4c0.6,0,1.2-0.1,1.7-0.4c0.5-0.3,0.9-0.7,1.1-1.1
			c0.2-0.4,0.3-0.9,0.3-1.6V494.4z M387.7,499.3v-13.4h1.6v13.4H387.7z"/>
		<path d="M307.8,521.3v-13.4h5.9c1.2,0,2.1,0.1,2.7,0.4c0.6,0.2,1.1,0.7,1.5,1.3c0.4,0.6,0.6,1.3,0.6,2c0,0.9-0.3,1.7-0.9,2.4
			c-0.6,0.6-1.6,1.1-2.8,1.2c0.5,0.2,0.8,0.5,1.1,0.7c0.5,0.5,1,1.1,1.5,1.8l2.3,3.6h-2.2l-1.8-2.8c-0.5-0.8-0.9-1.4-1.3-1.8
			c-0.3-0.4-0.6-0.7-0.9-0.9c-0.3-0.2-0.5-0.3-0.8-0.4c-0.2-0.1-0.5-0.1-1-0.1h-2v5.9H307.8z M309.6,513.8h3.8
			c0.8,0,1.4-0.1,1.9-0.2c0.5-0.2,0.8-0.4,1-0.8c0.2-0.4,0.4-0.8,0.4-1.2c0-0.6-0.2-1.2-0.7-1.6c-0.5-0.4-1.2-0.6-2.2-0.6h-4.2
			V513.8z M327.7,518.2l1.7,0.2c-0.3,1-0.8,1.8-1.5,2.3c-0.7,0.5-1.6,0.8-2.8,0.8c-1.4,0-2.5-0.4-3.4-1.3c-0.8-0.9-1.2-2.1-1.2-3.7
			c0-1.6,0.4-2.9,1.2-3.8c0.8-0.9,1.9-1.3,3.3-1.3c1.3,0,2.3,0.4,3.2,1.3c0.8,0.9,1.2,2.1,1.2,3.7c0,0.1,0,0.2,0,0.4h-7.2
			c0.1,1.1,0.4,1.9,0.9,2.5c0.5,0.6,1.2,0.8,2,0.8c0.6,0,1.1-0.2,1.5-0.5C327.1,519.4,327.4,518.9,327.7,518.2z M322.3,515.5h5.4
			c-0.1-0.8-0.3-1.4-0.6-1.8c-0.5-0.6-1.2-1-2-1c-0.8,0-1.4,0.3-1.9,0.8C322.6,514,322.3,514.7,322.3,515.5z M331.1,522.1l1.6,0.2
			c0.1,0.5,0.3,0.9,0.6,1.1c0.4,0.3,1,0.5,1.7,0.5c0.8,0,1.3-0.2,1.8-0.5c0.4-0.3,0.7-0.7,0.8-1.3c0.1-0.3,0.1-1,0.1-2.1
			c-0.7,0.8-1.6,1.3-2.7,1.3c-1.3,0-2.4-0.5-3.1-1.4s-1.1-2.1-1.1-3.5c0-0.9,0.2-1.8,0.5-2.6c0.3-0.8,0.8-1.4,1.5-1.8
			c0.6-0.4,1.4-0.6,2.2-0.6c1.1,0,2.1,0.5,2.8,1.4v-1.2h1.5v8.4c0,1.5-0.2,2.6-0.5,3.2c-0.3,0.6-0.8,1.1-1.5,1.5
			c-0.7,0.4-1.5,0.5-2.5,0.5c-1.1,0-2.1-0.3-2.8-0.8C331.4,523.9,331.1,523.1,331.1,522.1z M332.5,516.3c0,1.3,0.2,2.2,0.8,2.8
			c0.5,0.6,1.1,0.9,1.9,0.9c0.8,0,1.4-0.3,1.9-0.9c0.5-0.6,0.8-1.5,0.8-2.7c0-1.2-0.3-2.1-0.8-2.7c-0.5-0.6-1.2-0.9-1.9-0.9
			c-0.7,0-1.3,0.3-1.9,0.9C332.7,514.2,332.5,515.1,332.5,516.3z M341.8,509.8v-1.9h1.6v1.9H341.8z M341.8,521.3v-9.7h1.6v9.7H341.8
			z M345.3,516.5c0-1.8,0.5-3.1,1.5-4c0.8-0.7,1.8-1.1,3-1.1c1.3,0,2.4,0.4,3.3,1.3c0.8,0.9,1.3,2.1,1.3,3.6c0,1.2-0.2,2.2-0.6,2.9
			c-0.4,0.7-0.9,1.3-1.6,1.7c-0.7,0.4-1.5,0.6-2.3,0.6c-1.4,0-2.4-0.4-3.3-1.3C345.8,519.3,345.3,518.1,345.3,516.5z M347,516.5
			c0,1.2,0.3,2.2,0.8,2.8c0.5,0.6,1.2,0.9,2,0.9c0.8,0,1.5-0.3,2-0.9c0.5-0.6,0.8-1.6,0.8-2.8c0-1.2-0.3-2.1-0.8-2.7
			c-0.5-0.6-1.2-0.9-2-0.9c-0.8,0-1.5,0.3-2,0.9C347.3,514.3,347,515.2,347,516.5z M356.3,521.3v-9.7h1.5v1.4
			c0.7-1.1,1.7-1.6,3.1-1.6c0.6,0,1.1,0.1,1.6,0.3c0.5,0.2,0.9,0.5,1.1,0.8c0.2,0.3,0.4,0.7,0.5,1.2c0.1,0.3,0.1,0.8,0.1,1.6v6h-1.6
			v-5.9c0-0.7-0.1-1.2-0.2-1.5c-0.1-0.3-0.3-0.6-0.7-0.8c-0.3-0.2-0.7-0.3-1.1-0.3c-0.7,0-1.3,0.2-1.8,0.7c-0.5,0.4-0.8,1.3-0.8,2.5
			v5.3H356.3z M373,520.1c-0.6,0.5-1.2,0.9-1.8,1.1c-0.6,0.2-1.2,0.3-1.8,0.3c-1.1,0-1.9-0.3-2.5-0.8s-0.9-1.2-0.9-2
			c0-0.5,0.1-0.9,0.3-1.3c0.2-0.4,0.5-0.7,0.8-0.9c0.4-0.2,0.8-0.4,1.2-0.5c0.3-0.1,0.8-0.2,1.5-0.2c1.3-0.2,2.3-0.3,2.9-0.6
			c0-0.2,0-0.4,0-0.4c0-0.7-0.2-1.1-0.5-1.4c-0.4-0.4-1-0.5-1.9-0.5c-0.8,0-1.3,0.1-1.7,0.4s-0.6,0.7-0.8,1.4l-1.6-0.2
			c0.1-0.7,0.4-1.2,0.7-1.6c0.3-0.4,0.8-0.8,1.5-1s1.4-0.3,2.2-0.3c0.8,0,1.5,0.1,2,0.3c0.5,0.2,0.9,0.4,1.1,0.7
			c0.2,0.3,0.4,0.7,0.5,1.1c0.1,0.3,0.1,0.8,0.1,1.5v2.2c0,1.5,0,2.5,0.1,2.9c0.1,0.4,0.2,0.8,0.4,1.2h-1.7
			C373.2,521,373.1,520.6,373,520.1z M372.9,516.4c-0.6,0.2-1.5,0.5-2.7,0.6c-0.7,0.1-1.2,0.2-1.4,0.3s-0.5,0.3-0.7,0.5
			c-0.1,0.2-0.2,0.5-0.2,0.8c0,0.4,0.2,0.8,0.5,1.1s0.8,0.4,1.5,0.4c0.6,0,1.2-0.1,1.7-0.4c0.5-0.3,0.9-0.7,1.1-1.1
			c0.2-0.4,0.3-0.9,0.3-1.6V516.4z M377,521.3v-13.4h1.6v13.4H377z"/>
		<path d="M290.9,536.8c0-2.2,0.6-4,1.8-5.2c1.2-1.3,2.7-1.9,4.6-1.9c1.2,0,2.3,0.3,3.3,0.9c1,0.6,1.7,1.4,2.3,2.5
			c0.5,1.1,0.8,2.2,0.8,3.6c0,1.4-0.3,2.6-0.8,3.6c-0.5,1.1-1.3,1.9-2.3,2.4s-2.1,0.8-3.2,0.8c-1.2,0-2.4-0.3-3.4-0.9
			c-1-0.6-1.7-1.4-2.2-2.5S290.9,538,290.9,536.8z M292.7,536.8c0,1.6,0.4,2.9,1.3,3.8s2,1.4,3.3,1.4c1.3,0,2.4-0.5,3.3-1.4
			s1.3-2.3,1.3-4c0-1.1-0.2-2-0.5-2.8s-0.9-1.4-1.6-1.9c-0.7-0.4-1.5-0.7-2.4-0.7c-1.3,0-2.3,0.4-3.2,1.3
			C293.1,533.4,292.7,534.8,292.7,536.8z M306.1,543.3v-8.4h-1.5v-1.3h1.5v-1c0-0.6,0.1-1.1,0.2-1.5c0.2-0.4,0.4-0.8,0.8-1
			s1-0.4,1.7-0.4c0.5,0,1,0.1,1.5,0.2l-0.2,1.4c-0.3-0.1-0.7-0.1-1-0.1c-0.5,0-0.9,0.1-1.1,0.3c-0.2,0.2-0.3,0.6-0.3,1.2v0.9h1.9
			v1.3h-1.9v8.4H306.1z M310.9,543.3v-8.4h-1.5v-1.3h1.5v-1c0-0.6,0.1-1.1,0.2-1.5c0.2-0.4,0.4-0.8,0.8-1s1-0.4,1.7-0.4
			c0.5,0,1,0.1,1.5,0.2l-0.2,1.4c-0.3-0.1-0.7-0.1-1-0.1c-0.5,0-0.9,0.1-1.1,0.3c-0.2,0.2-0.3,0.6-0.3,1.2v0.9h1.9v1.3h-1.9v8.4
			H310.9z M315.7,531.8v-1.9h1.6v1.9H315.7z M315.7,543.3v-9.7h1.6v9.7H315.7z M326.2,539.8l1.6,0.2c-0.2,1.1-0.6,2-1.4,2.6
			c-0.7,0.6-1.6,0.9-2.7,0.9c-1.3,0-2.4-0.4-3.2-1.3s-1.2-2.1-1.2-3.7c0-1.1,0.2-2,0.5-2.8s0.9-1.4,1.6-1.8c0.7-0.4,1.5-0.6,2.3-0.6
			c1.1,0,1.9,0.3,2.6,0.8s1.1,1.3,1.3,2.3l-1.6,0.2c-0.2-0.6-0.4-1.1-0.8-1.5c-0.4-0.3-0.8-0.5-1.4-0.5c-0.8,0-1.5,0.3-2,0.9
			s-0.8,1.5-0.8,2.8c0,1.3,0.2,2.2,0.8,2.8c0.5,0.6,1.2,0.9,2,0.9c0.6,0,1.2-0.2,1.6-0.6C325.8,541.2,326.1,540.6,326.2,539.8z
			 M335.8,540.2l1.7,0.2c-0.3,1-0.8,1.8-1.5,2.3c-0.7,0.5-1.6,0.8-2.8,0.8c-1.4,0-2.5-0.4-3.4-1.3c-0.8-0.9-1.2-2.1-1.2-3.7
			c0-1.6,0.4-2.9,1.2-3.8c0.8-0.9,1.9-1.3,3.3-1.3c1.3,0,2.3,0.4,3.2,1.3c0.8,0.9,1.2,2.1,1.2,3.7c0,0.1,0,0.2,0,0.4h-7.2
			c0.1,1.1,0.4,1.9,0.9,2.5c0.5,0.6,1.2,0.8,2,0.8c0.6,0,1.1-0.2,1.5-0.5C335.2,541.4,335.6,540.9,335.8,540.2z M330.4,537.5h5.4
			c-0.1-0.8-0.3-1.4-0.6-1.8c-0.5-0.6-1.2-1-2-1c-0.8,0-1.4,0.3-1.9,0.8C330.8,536,330.5,536.7,330.4,537.5z M347.9,547.2
			c-0.9-1.1-1.7-2.5-2.3-4s-0.9-3.1-0.9-4.8c0-1.4,0.2-2.8,0.7-4.1c0.6-1.5,1.4-3.1,2.5-4.6h1.2c-0.7,1.3-1.2,2.2-1.5,2.7
			c-0.4,0.8-0.7,1.7-0.9,2.6c-0.3,1.1-0.4,2.3-0.4,3.4c0,2.9,0.9,5.8,2.7,8.8H347.9z M355,543.3l-5.2-13.4h1.9l3.5,9.7
			c0.3,0.8,0.5,1.5,0.7,2.2c0.2-0.7,0.4-1.5,0.7-2.2l3.6-9.7h1.8l-5.2,13.4H355z M363.7,543.3v-13.4h5.9c1.2,0,2.1,0.1,2.7,0.4
			c0.6,0.2,1.1,0.7,1.5,1.3c0.4,0.6,0.6,1.3,0.6,2c0,0.9-0.3,1.7-0.9,2.4c-0.6,0.6-1.6,1.1-2.8,1.2c0.5,0.2,0.8,0.5,1.1,0.7
			c0.5,0.5,1,1.1,1.5,1.8l2.3,3.6h-2.2l-1.8-2.8c-0.5-0.8-0.9-1.4-1.3-1.8c-0.3-0.4-0.6-0.7-0.9-0.9c-0.3-0.2-0.5-0.3-0.8-0.4
			c-0.2-0.1-0.5-0.1-1-0.1h-2v5.9H363.7z M365.4,535.8h3.8c0.8,0,1.4-0.1,1.9-0.2c0.5-0.2,0.8-0.4,1-0.8s0.4-0.8,0.4-1.2
			c0-0.6-0.2-1.2-0.7-1.6s-1.2-0.6-2.2-0.6h-4.2V535.8z M376.6,536.8c0-2.2,0.6-4,1.8-5.2c1.2-1.3,2.7-1.9,4.6-1.9
			c1.2,0,2.3,0.3,3.3,0.9c1,0.6,1.7,1.4,2.3,2.5c0.5,1.1,0.8,2.2,0.8,3.6c0,1.4-0.3,2.6-0.8,3.6c-0.5,1.1-1.3,1.9-2.3,2.4
			s-2.1,0.8-3.2,0.8c-1.2,0-2.4-0.3-3.4-0.9c-1-0.6-1.7-1.4-2.2-2.5C376.8,539.1,376.6,538,376.6,536.8z M378.4,536.8
			c0,1.6,0.4,2.9,1.3,3.8c0.9,0.9,2,1.4,3.3,1.4c1.3,0,2.4-0.5,3.3-1.4c0.9-0.9,1.3-2.3,1.3-4c0-1.1-0.2-2-0.5-2.8
			c-0.4-0.8-0.9-1.4-1.6-1.9c-0.7-0.4-1.5-0.7-2.4-0.7c-1.3,0-2.3,0.4-3.2,1.3C378.8,533.4,378.4,534.8,378.4,536.8z M392.5,547.2
			h-1.2c1.8-2.9,2.7-5.8,2.7-8.8c0-1.1-0.1-2.3-0.4-3.4c-0.2-0.9-0.5-1.8-0.9-2.6c-0.2-0.6-0.7-1.5-1.5-2.7h1.2
			c1.1,1.5,2,3.1,2.5,4.6c0.5,1.3,0.7,2.7,0.7,4.1c0,1.6-0.3,3.2-0.9,4.8S393.4,546.1,392.5,547.2z"/>
		<path class="st2" d="M713.2,250.8L713.2,250.8c0-60.3,48.9-109.2,109.2-109.2l0,0c29,0,56.7,11.5,77.2,32s32,48.2,32,77.2l0,0
			c0,60.3-48.9,109.2-109.2,109.2l0,0C762.1,360,713.2,311.1,713.2,250.8z"/>
		<path class="st3" d="M713.2,250.8L713.2,250.8c0-60.3,48.9-109.2,109.2-109.2l0,0c29,0,56.7,11.5,77.2,32s32,48.2,32,77.2l0,0
			c0,60.3-48.9,109.2-109.2,109.2l0,0C762.1,360,713.2,311.1,713.2,250.8z"/>
		<path d="M758.4,246.7v-13.4h1.8l7,10.5v-10.5h1.7v13.4h-1.8l-7-10.5v10.5H758.4z M771,241.9c0-1.8,0.5-3.1,1.5-4
			c0.8-0.7,1.8-1.1,3-1.1c1.3,0,2.4,0.4,3.3,1.3c0.8,0.9,1.3,2.1,1.3,3.6c0,1.2-0.2,2.2-0.6,2.9c-0.4,0.7-0.9,1.3-1.6,1.7
			c-0.7,0.4-1.5,0.6-2.3,0.6c-1.4,0-2.4-0.4-3.3-1.3C771.4,244.8,771,243.5,771,241.9z M772.7,241.9c0,1.2,0.3,2.2,0.8,2.8
			c0.5,0.6,1.2,0.9,2,0.9c0.8,0,1.5-0.3,2-0.9c0.5-0.6,0.8-1.6,0.8-2.8c0-1.2-0.3-2.1-0.8-2.7c-0.5-0.6-1.2-0.9-2-0.9
			c-0.8,0-1.5,0.3-2,0.9C773,239.7,772.7,240.7,772.7,241.9z M782,246.7v-9.7h1.5v1.4c0.7-1.1,1.7-1.6,3.1-1.6
			c0.6,0,1.1,0.1,1.6,0.3c0.5,0.2,0.9,0.5,1.1,0.8c0.2,0.3,0.4,0.7,0.5,1.2c0.1,0.3,0.1,0.8,0.1,1.6v6h-1.6v-5.9
			c0-0.7-0.1-1.2-0.2-1.5c-0.1-0.3-0.3-0.6-0.7-0.8c-0.3-0.2-0.7-0.3-1.1-0.3c-0.7,0-1.3,0.2-1.8,0.7c-0.5,0.4-0.8,1.3-0.8,2.5v5.3
			H782z M791.8,242.7v-1.6h5v1.6H791.8z M797.3,246.7l5.1-13.4h1.9l5.5,13.4h-2l-1.5-4h-5.6l-1.5,4H797.3z M801.2,241.3h4.5
			l-1.4-3.7c-0.4-1.1-0.7-2-0.9-2.8c-0.2,0.9-0.4,1.7-0.7,2.5L801.2,241.3z M812.9,246.7l-3.5-13.4h1.8l2,8.8
			c0.2,0.9,0.4,1.8,0.6,2.7c0.3-1.4,0.5-2.2,0.6-2.5l2.5-9h2.1l1.9,6.8c0.5,1.7,0.8,3.2,1,4.7c0.2-0.8,0.4-1.8,0.7-2.9l2.1-8.6h1.8
			l-3.7,13.4h-1.7l-2.8-10.2c-0.2-0.9-0.4-1.4-0.4-1.6c-0.1,0.6-0.3,1.1-0.4,1.6l-2.8,10.2H812.9z M827.6,242.4l1.7-0.1
			c0.1,0.7,0.3,1.2,0.5,1.6c0.3,0.4,0.7,0.8,1.3,1c0.6,0.3,1.3,0.4,2.1,0.4c0.7,0,1.3-0.1,1.8-0.3c0.5-0.2,0.9-0.5,1.2-0.8
			c0.2-0.4,0.4-0.7,0.4-1.2s-0.1-0.8-0.4-1.1c-0.2-0.3-0.6-0.6-1.2-0.8c-0.4-0.1-1.2-0.3-2.4-0.6c-1.2-0.3-2.1-0.6-2.6-0.8
			c-0.6-0.3-1.1-0.7-1.4-1.2c-0.3-0.5-0.5-1.1-0.5-1.7c0-0.7,0.2-1.3,0.6-1.9c0.4-0.6,0.9-1,1.7-1.3c0.7-0.3,1.6-0.5,2.5-0.5
			c1,0,1.9,0.2,2.6,0.5c0.8,0.3,1.3,0.8,1.8,1.4c0.4,0.6,0.6,1.3,0.7,2.1l-1.7,0.1c-0.1-0.8-0.4-1.5-0.9-1.9
			c-0.5-0.4-1.3-0.7-2.3-0.7c-1.1,0-1.9,0.2-2.3,0.6c-0.5,0.4-0.7,0.9-0.7,1.4c0,0.5,0.2,0.9,0.5,1.2c0.3,0.3,1.2,0.6,2.7,1
			c1.4,0.3,2.4,0.6,3,0.8c0.8,0.4,1.4,0.8,1.7,1.4c0.4,0.6,0.6,1.2,0.6,1.9c0,0.7-0.2,1.4-0.6,2c-0.4,0.6-1,1.1-1.8,1.5
			c-0.8,0.3-1.6,0.5-2.6,0.5c-1.2,0-2.2-0.2-3-0.5c-0.8-0.4-1.5-0.9-1.9-1.6C827.8,244.1,827.6,243.3,827.6,242.4z"/>
		<path d="M855.3,242.1l1.8,0.5c-0.4,1.4-1,2.6-2,3.3c-1,0.8-2.1,1.1-3.5,1.1c-1.4,0-2.6-0.3-3.5-0.9c-0.9-0.6-1.6-1.4-2.1-2.5
			c-0.5-1.1-0.7-2.3-0.7-3.6c0-1.4,0.3-2.6,0.8-3.6c0.5-1,1.3-1.8,2.3-2.4c1-0.5,2.1-0.8,3.2-0.8c1.3,0,2.5,0.3,3.4,1
			c0.9,0.7,1.6,1.6,1.9,2.9l-1.7,0.4c-0.3-1-0.8-1.7-1.4-2.1c-0.6-0.4-1.3-0.7-2.2-0.7c-1,0-1.9,0.2-2.6,0.7s-1.2,1.2-1.5,2
			c-0.3,0.8-0.4,1.7-0.4,2.6c0,1.1,0.2,2.1,0.5,3s0.8,1.5,1.5,1.9c0.7,0.4,1.5,0.6,2.3,0.6c1,0,1.8-0.3,2.5-0.9
			S855.1,243.2,855.3,242.1z M859,246.7v-13.4h1.6v13.4H859z M862.6,241.9c0-1.8,0.5-3.1,1.5-4c0.8-0.7,1.8-1.1,3-1.1
			c1.3,0,2.4,0.4,3.3,1.3c0.8,0.9,1.3,2.1,1.3,3.6c0,1.2-0.2,2.2-0.6,2.9c-0.4,0.7-0.9,1.3-1.6,1.7c-0.7,0.4-1.5,0.6-2.3,0.6
			c-1.4,0-2.4-0.4-3.3-1.3C863,244.8,862.6,243.5,862.6,241.9z M864.3,241.9c0,1.2,0.3,2.2,0.8,2.8c0.5,0.6,1.2,0.9,2,0.9
			c0.8,0,1.5-0.3,2-0.9c0.5-0.6,0.8-1.6,0.8-2.8c0-1.2-0.3-2.1-0.8-2.7c-0.5-0.6-1.2-0.9-2-0.9c-0.8,0-1.5,0.3-2,0.9
			C864.6,239.7,864.3,240.7,864.3,241.9z M879.9,246.7v-1.4c-0.8,1.1-1.8,1.6-3.1,1.6c-0.6,0-1.1-0.1-1.6-0.3
			c-0.5-0.2-0.9-0.5-1.1-0.8c-0.2-0.3-0.4-0.7-0.5-1.2c-0.1-0.3-0.1-0.8-0.1-1.5v-6h1.6v5.4c0,0.9,0,1.4,0.1,1.7
			c0.1,0.4,0.3,0.8,0.7,1c0.3,0.2,0.7,0.4,1.2,0.4c0.5,0,0.9-0.1,1.4-0.4c0.4-0.3,0.7-0.6,0.9-1c0.2-0.4,0.3-1.1,0.3-1.9v-5.2h1.6
			v9.7H879.9z M890.2,246.7v-1.2c-0.6,1-1.5,1.4-2.7,1.4c-0.8,0-1.5-0.2-2.1-0.6c-0.6-0.4-1.1-1-1.5-1.8c-0.4-0.8-0.5-1.6-0.5-2.6
			c0-1,0.2-1.8,0.5-2.6c0.3-0.8,0.8-1.4,1.4-1.8c0.6-0.4,1.4-0.6,2.2-0.6c0.6,0,1.1,0.1,1.5,0.4c0.5,0.2,0.8,0.6,1.1,1v-4.8h1.6
			v13.4H890.2z M885.1,241.9c0,1.2,0.3,2.2,0.8,2.8c0.5,0.6,1.1,0.9,1.8,0.9c0.7,0,1.3-0.3,1.8-0.9c0.5-0.6,0.8-1.5,0.8-2.7
			c0-1.3-0.3-2.3-0.8-2.9c-0.5-0.6-1.1-0.9-1.9-0.9c-0.7,0-1.3,0.3-1.8,0.9C885.3,239.7,885.1,240.6,885.1,241.9z"/>
		<path d="M776,272.7c-0.9-1.1-1.7-2.5-2.3-4s-0.9-3.1-0.9-4.8c0-1.4,0.2-2.8,0.7-4.1c0.6-1.5,1.4-3.1,2.5-4.6h1.2
			c-0.7,1.3-1.2,2.2-1.5,2.7c-0.4,0.8-0.7,1.7-0.9,2.6c-0.3,1.1-0.4,2.3-0.4,3.4c0,2.9,0.9,5.8,2.7,8.8H776z M785.7,265.6l1.7,0.2
			c-0.3,1-0.8,1.8-1.5,2.3c-0.7,0.5-1.6,0.8-2.8,0.8c-1.4,0-2.5-0.4-3.4-1.3c-0.8-0.9-1.2-2.1-1.2-3.7c0-1.6,0.4-2.9,1.2-3.8
			c0.8-0.9,1.9-1.3,3.3-1.3c1.3,0,2.3,0.4,3.2,1.3c0.8,0.9,1.2,2.1,1.2,3.7c0,0.1,0,0.2,0,0.4h-7.2c0.1,1.1,0.4,1.9,0.9,2.5
			c0.5,0.6,1.2,0.8,2,0.8c0.6,0,1.1-0.2,1.5-0.5C785.1,266.8,785.4,266.3,785.7,265.6z M780.3,263h5.4c-0.1-0.8-0.3-1.4-0.6-1.8
			c-0.5-0.6-1.2-1-2-1c-0.8,0-1.4,0.3-1.9,0.8C780.6,261.5,780.4,262.1,780.3,263z M789.9,268.7v-1.9h1.9v1.9H789.9z M794.3,269.5
			l1.6,0.2c0.1,0.5,0.3,0.9,0.6,1.1c0.4,0.3,1,0.5,1.7,0.5c0.8,0,1.3-0.2,1.8-0.5c0.4-0.3,0.7-0.7,0.8-1.3c0.1-0.3,0.1-1,0.1-2.1
			c-0.7,0.8-1.6,1.3-2.7,1.3c-1.3,0-2.4-0.5-3.1-1.4c-0.7-1-1.1-2.1-1.1-3.5c0-0.9,0.2-1.8,0.5-2.6c0.3-0.8,0.8-1.4,1.5-1.8
			c0.6-0.4,1.4-0.6,2.2-0.6c1.1,0,2.1,0.5,2.8,1.4v-1.2h1.5v8.4c0,1.5-0.2,2.6-0.5,3.2c-0.3,0.6-0.8,1.1-1.5,1.5
			c-0.7,0.4-1.5,0.5-2.5,0.5c-1.1,0-2.1-0.3-2.8-0.8C794.6,271.4,794.3,270.6,794.3,269.5z M795.7,263.7c0,1.3,0.3,2.2,0.8,2.8
			c0.5,0.6,1.1,0.9,1.9,0.9c0.8,0,1.4-0.3,1.9-0.9c0.5-0.6,0.8-1.5,0.8-2.7c0-1.2-0.3-2.1-0.8-2.7c-0.5-0.6-1.2-0.9-1.9-0.9
			c-0.7,0-1.3,0.3-1.9,0.9C795.9,261.7,795.7,262.6,795.7,263.7z M805.5,268.7v-1.9h1.9v1.9H805.5z M810.6,268.7v-1.9h1.9v1.9
			c0,0.7-0.1,1.2-0.4,1.7c-0.2,0.4-0.6,0.8-1.2,1l-0.5-0.7c0.3-0.1,0.6-0.4,0.8-0.7c0.2-0.3,0.3-0.7,0.3-1.3H810.6z M818.3,268.7
			l5.1-13.4h1.9l5.5,13.4h-2l-1.5-4h-5.6l-1.5,4H818.3z M822.1,263.3h4.5l-1.4-3.7c-0.4-1.1-0.7-2-0.9-2.8c-0.2,0.9-0.4,1.7-0.7,2.5
			L822.1,263.3z M831.1,268.7v-1.3l6.2-7.1c-0.7,0-1.3,0.1-1.8,0.1h-3.9v-1.3h7.9v1.1l-5.2,6.1l-1,1.1c0.7-0.1,1.4-0.1,2.1-0.1h4.5
			v1.4H831.1z M847.6,268.7v-1.4c-0.8,1.1-1.8,1.6-3.1,1.6c-0.6,0-1.1-0.1-1.6-0.3c-0.5-0.2-0.9-0.5-1.1-0.8
			c-0.2-0.3-0.4-0.7-0.5-1.2c-0.1-0.3-0.1-0.8-0.1-1.5v-6h1.6v5.4c0,0.9,0,1.4,0.1,1.7c0.1,0.4,0.3,0.8,0.7,1
			c0.3,0.2,0.7,0.4,1.2,0.4c0.5,0,0.9-0.1,1.4-0.4c0.4-0.3,0.7-0.6,0.9-1c0.2-0.4,0.3-1.1,0.3-1.9v-5.2h1.6v9.7H847.6z M851.7,268.7
			v-9.7h1.5v1.5c0.4-0.7,0.7-1.1,1-1.4c0.3-0.2,0.7-0.3,1.1-0.3c0.6,0,1.1,0.2,1.7,0.5l-0.6,1.5c-0.4-0.2-0.8-0.4-1.2-0.4
			c-0.4,0-0.7,0.1-1,0.3s-0.5,0.5-0.6,0.9c-0.2,0.6-0.3,1.2-0.3,1.9v5.1H851.7z M864.5,265.6l1.7,0.2c-0.3,1-0.8,1.8-1.5,2.3
			c-0.7,0.5-1.6,0.8-2.8,0.8c-1.4,0-2.5-0.4-3.4-1.3c-0.8-0.9-1.2-2.1-1.2-3.7c0-1.6,0.4-2.9,1.2-3.8c0.8-0.9,1.9-1.3,3.3-1.3
			c1.3,0,2.3,0.4,3.2,1.3c0.8,0.9,1.2,2.1,1.2,3.7c0,0.1,0,0.2,0,0.4H859c0.1,1.1,0.4,1.9,0.9,2.5c0.5,0.6,1.2,0.8,2,0.8
			c0.6,0,1.1-0.2,1.5-0.5C863.9,266.8,864.3,266.3,864.5,265.6z M859.1,263h5.4c-0.1-0.8-0.3-1.4-0.6-1.8c-0.5-0.6-1.2-1-2-1
			c-0.8,0-1.4,0.3-1.9,0.8C859.4,261.5,859.2,262.1,859.1,263z M869.3,272.7h-1.2c1.8-2.9,2.7-5.8,2.7-8.8c0-1.1-0.1-2.3-0.4-3.4
			c-0.2-0.9-0.5-1.8-0.9-2.6c-0.2-0.6-0.7-1.5-1.5-2.7h1.2c1.1,1.5,2,3.1,2.5,4.6c0.5,1.3,0.7,2.7,0.7,4.1c0,1.6-0.3,3.2-0.9,4.8
			S870.2,271.5,869.3,272.7z"/>
		<path class="st5" d="M713.2,502.9L713.2,502.9c0-60.3,48.9-109.2,109.2-109.2l0,0c29,0,56.7,11.5,77.2,32s32,48.2,32,77.2l0,0
			c0,60.3-48.9,109.2-109.2,109.2l0,0C762.1,612.1,713.2,563.2,713.2,502.9z"/>
		<path class="st3" d="M713.2,502.9L713.2,502.9c0-60.3,48.9-109.2,109.2-109.2l0,0c29,0,56.7,11.5,77.2,32s32,48.2,32,77.2l0,0
			c0,60.3-48.9,109.2-109.2,109.2l0,0C762.1,612.1,713.2,563.2,713.2,502.9z"/>
		<path class="st4" d="M195.7,667.9h361.6V720H195.7L195.7,667.9z"/>
		<path class="st3" d="M195.7,667.9h361.6V720H195.7L195.7,667.9z"/>
		<path d="M206.2,700.9v-13.4h1.8l7,10.5v-10.5h1.7v13.4h-1.8l-7-10.5v10.5H206.2z M218.8,696c0-1.8,0.5-3.1,1.5-4
			c0.8-0.7,1.8-1.1,3-1.1c1.3,0,2.4,0.4,3.3,1.3c0.8,0.9,1.3,2.1,1.3,3.6c0,1.2-0.2,2.2-0.6,2.9c-0.4,0.7-0.9,1.3-1.6,1.7
			c-0.7,0.4-1.5,0.6-2.3,0.6c-1.4,0-2.4-0.4-3.3-1.3C219.3,698.9,218.8,697.6,218.8,696z M220.5,696c0,1.2,0.3,2.2,0.8,2.8
			c0.5,0.6,1.2,0.9,2,0.9c0.8,0,1.5-0.3,2-0.9c0.5-0.6,0.8-1.6,0.8-2.8c0-1.2-0.3-2.1-0.8-2.7c-0.5-0.6-1.2-0.9-2-0.9
			c-0.8,0-1.5,0.3-2,0.9C220.8,693.9,220.5,694.8,220.5,696z M235.2,700.9v-13.4h9.7v1.6H237v4.1h7.4v1.6H237v4.5h8.2v1.6H235.2z
			 M247.1,696.6l1.7-0.1c0.1,0.7,0.3,1.2,0.5,1.6c0.3,0.4,0.7,0.8,1.3,1c0.6,0.3,1.3,0.4,2.1,0.4c0.7,0,1.3-0.1,1.8-0.3
			c0.5-0.2,0.9-0.5,1.2-0.8c0.2-0.4,0.4-0.7,0.4-1.2c0-0.4-0.1-0.8-0.4-1.1c-0.2-0.3-0.6-0.6-1.2-0.8c-0.4-0.1-1.2-0.3-2.4-0.6
			c-1.2-0.3-2.1-0.6-2.6-0.8c-0.6-0.3-1.1-0.7-1.4-1.2c-0.3-0.5-0.5-1.1-0.5-1.7c0-0.7,0.2-1.3,0.6-1.9c0.4-0.6,0.9-1,1.7-1.3
			c0.7-0.3,1.6-0.5,2.5-0.5c1,0,1.9,0.2,2.6,0.5c0.8,0.3,1.3,0.8,1.8,1.4c0.4,0.6,0.6,1.3,0.7,2.1l-1.7,0.1
			c-0.1-0.8-0.4-1.5-0.9-1.9c-0.5-0.4-1.3-0.7-2.3-0.7c-1.1,0-1.9,0.2-2.3,0.6c-0.5,0.4-0.7,0.9-0.7,1.4c0,0.5,0.2,0.9,0.5,1.2
			c0.3,0.3,1.2,0.6,2.7,1c1.4,0.3,2.4,0.6,3,0.8c0.8,0.4,1.4,0.8,1.7,1.4c0.4,0.6,0.6,1.2,0.6,1.9c0,0.7-0.2,1.4-0.6,2
			c-0.4,0.6-1,1.1-1.8,1.5c-0.8,0.3-1.6,0.5-2.6,0.5c-1.2,0-2.2-0.2-3-0.5c-0.8-0.4-1.5-0.9-1.9-1.6
			C247.3,698.3,247.1,697.5,247.1,696.6z M260.1,700.9v-13.4h9.7v1.6h-7.9v4.1h7.4v1.6h-7.4v4.5h8.2v1.6H260.1z M282.1,696.2
			l1.8,0.5c-0.4,1.4-1,2.6-2,3.3c-1,0.8-2.1,1.1-3.5,1.1c-1.4,0-2.6-0.3-3.5-0.9c-0.9-0.6-1.6-1.4-2.1-2.5c-0.5-1.1-0.7-2.3-0.7-3.6
			c0-1.4,0.3-2.6,0.8-3.6c0.5-1,1.3-1.8,2.3-2.4c1-0.5,2.1-0.8,3.2-0.8c1.3,0,2.5,0.3,3.4,1c0.9,0.7,1.6,1.6,1.9,2.9l-1.7,0.4
			c-0.3-1-0.8-1.7-1.4-2.1c-0.6-0.4-1.3-0.7-2.2-0.7c-1,0-1.9,0.2-2.6,0.7c-0.7,0.5-1.2,1.2-1.5,2c-0.3,0.8-0.4,1.7-0.4,2.6
			c0,1.1,0.2,2.1,0.5,3s0.8,1.5,1.5,1.9c0.7,0.4,1.5,0.6,2.3,0.6c1,0,1.8-0.3,2.5-0.9C281.4,698.1,281.8,697.3,282.1,696.2z
			 M295.5,696.2l1.8,0.5c-0.4,1.4-1,2.6-2,3.3c-1,0.8-2.1,1.1-3.5,1.1c-1.4,0-2.6-0.3-3.5-0.9c-0.9-0.6-1.6-1.4-2.1-2.5
			c-0.5-1.1-0.7-2.3-0.7-3.6c0-1.4,0.3-2.6,0.8-3.6c0.5-1,1.3-1.8,2.3-2.4c1-0.5,2.1-0.8,3.2-0.8c1.3,0,2.5,0.3,3.4,1
			c0.9,0.7,1.6,1.6,1.9,2.9l-1.7,0.4c-0.3-1-0.8-1.7-1.4-2.1c-0.6-0.4-1.3-0.7-2.2-0.7c-1,0-1.9,0.2-2.6,0.7c-0.7,0.5-1.2,1.2-1.5,2
			c-0.3,0.8-0.4,1.7-0.4,2.6c0,1.1,0.2,2.1,0.5,3c0.3,0.8,0.8,1.5,1.5,1.9c0.7,0.4,1.5,0.6,2.3,0.6c1,0,1.8-0.3,2.5-0.9
			C294.8,698.1,295.3,697.3,295.5,696.2z M307.6,704.8c-0.9-1.1-1.7-2.5-2.3-4s-0.9-3.1-0.9-4.8c0-1.4,0.2-2.8,0.7-4.1
			c0.6-1.5,1.4-3.1,2.5-4.6h1.2c-0.7,1.3-1.2,2.2-1.5,2.7c-0.4,0.8-0.7,1.7-0.9,2.6c-0.3,1.1-0.4,2.3-0.4,3.4c0,2.9,0.9,5.8,2.7,8.8
			H307.6z M310.3,696.6l1.7-0.1c0.1,0.7,0.3,1.2,0.5,1.6c0.3,0.4,0.7,0.8,1.3,1c0.6,0.3,1.3,0.4,2.1,0.4c0.7,0,1.3-0.1,1.8-0.3
			c0.5-0.2,0.9-0.5,1.2-0.8c0.2-0.4,0.4-0.7,0.4-1.2c0-0.4-0.1-0.8-0.4-1.1c-0.2-0.3-0.6-0.6-1.2-0.8c-0.4-0.1-1.2-0.3-2.4-0.6
			c-1.2-0.3-2.1-0.6-2.6-0.8c-0.6-0.3-1.1-0.7-1.4-1.2c-0.3-0.5-0.5-1.1-0.5-1.7c0-0.7,0.2-1.3,0.6-1.9c0.4-0.6,0.9-1,1.7-1.3
			c0.7-0.3,1.6-0.5,2.5-0.5c1,0,1.9,0.2,2.6,0.5c0.8,0.3,1.3,0.8,1.8,1.4c0.4,0.6,0.6,1.3,0.7,2.1l-1.7,0.1
			c-0.1-0.8-0.4-1.5-0.9-1.9c-0.5-0.4-1.3-0.7-2.3-0.7c-1.1,0-1.9,0.2-2.3,0.6c-0.5,0.4-0.7,0.9-0.7,1.4c0,0.5,0.2,0.9,0.5,1.2
			c0.3,0.3,1.2,0.6,2.7,1c1.4,0.3,2.4,0.6,3,0.8c0.8,0.4,1.4,0.8,1.7,1.4c0.4,0.6,0.6,1.2,0.6,1.9c0,0.7-0.2,1.4-0.6,2
			c-0.4,0.6-1,1.1-1.8,1.5c-0.8,0.3-1.6,0.5-2.6,0.5c-1.2,0-2.2-0.2-3-0.5c-0.8-0.4-1.5-0.9-1.9-1.6
			C310.5,698.3,310.3,697.5,310.3,696.6z M329.7,697.7l1.7,0.2c-0.3,1-0.8,1.8-1.5,2.3c-0.7,0.5-1.6,0.8-2.8,0.8
			c-1.4,0-2.5-0.4-3.4-1.3c-0.8-0.9-1.2-2.1-1.2-3.7c0-1.6,0.4-2.9,1.2-3.8c0.8-0.9,1.9-1.3,3.3-1.3c1.3,0,2.3,0.4,3.2,1.3
			c0.8,0.9,1.2,2.1,1.2,3.7c0,0.1,0,0.2,0,0.4h-7.2c0.1,1.1,0.4,1.9,0.9,2.5c0.5,0.6,1.2,0.8,2,0.8c0.6,0,1.1-0.2,1.5-0.5
			C329.2,698.9,329.5,698.4,329.7,697.7z M324.4,695.1h5.4c-0.1-0.8-0.3-1.4-0.6-1.8c-0.5-0.6-1.2-1-2-1c-0.8,0-1.4,0.3-1.9,0.8
			C324.7,693.6,324.4,694.2,324.4,695.1z M333.5,700.9v-9.7h1.5v1.5c0.4-0.7,0.7-1.1,1-1.4c0.3-0.2,0.7-0.3,1.1-0.3
			c0.6,0,1.1,0.2,1.7,0.5l-0.6,1.5c-0.4-0.2-0.8-0.4-1.2-0.4c-0.4,0-0.7,0.1-1,0.3s-0.5,0.5-0.6,0.9c-0.2,0.6-0.3,1.2-0.3,1.9v5.1
			H333.5z M342.4,700.9l-3.7-9.7h1.7l2.1,5.8c0.2,0.6,0.4,1.3,0.6,1.9c0.1-0.5,0.3-1.1,0.6-1.8l2.1-5.9h1.7l-3.7,9.7H342.4z
			 M349,689.4v-1.9h1.6v1.9H349z M349,700.9v-9.7h1.6v9.7H349z M359.5,697.3l1.6,0.2c-0.2,1.1-0.6,2-1.4,2.6
			c-0.7,0.6-1.6,0.9-2.7,0.9c-1.3,0-2.4-0.4-3.2-1.3c-0.8-0.9-1.2-2.1-1.2-3.7c0-1.1,0.2-2,0.5-2.8s0.9-1.4,1.6-1.8
			c0.7-0.4,1.5-0.6,2.3-0.6c1.1,0,1.9,0.3,2.6,0.8c0.7,0.5,1.1,1.3,1.3,2.3l-1.6,0.2c-0.2-0.6-0.4-1.1-0.8-1.5
			c-0.4-0.3-0.8-0.5-1.4-0.5c-0.8,0-1.5,0.3-2,0.9c-0.5,0.6-0.8,1.5-0.8,2.8c0,1.3,0.2,2.2,0.8,2.8c0.5,0.6,1.2,0.9,2,0.9
			c0.6,0,1.2-0.2,1.6-0.6C359.1,698.7,359.4,698.1,359.5,697.3z M369.1,697.7l1.7,0.2c-0.3,1-0.8,1.8-1.5,2.3
			c-0.7,0.5-1.6,0.8-2.8,0.8c-1.4,0-2.5-0.4-3.4-1.3c-0.8-0.9-1.2-2.1-1.2-3.7c0-1.6,0.4-2.9,1.2-3.8c0.8-0.9,1.9-1.3,3.3-1.3
			c1.3,0,2.3,0.4,3.2,1.3c0.8,0.9,1.2,2.1,1.2,3.7c0,0.1,0,0.2,0,0.4h-7.2c0.1,1.1,0.4,1.9,0.9,2.5c0.5,0.6,1.2,0.8,2,0.8
			c0.6,0,1.1-0.2,1.5-0.5C368.5,698.9,368.9,698.4,369.1,697.7z M363.7,695.1h5.4c-0.1-0.8-0.3-1.4-0.6-1.8c-0.5-0.6-1.2-1-2-1
			c-0.8,0-1.4,0.3-1.9,0.8C364.1,693.6,363.8,694.2,363.7,695.1z M378.3,700.9v-13.4h1.8l7,10.5v-10.5h1.7v13.4H387l-7-10.5v10.5
			H378.3z M390.9,696c0-1.8,0.5-3.1,1.5-4c0.8-0.7,1.8-1.1,3-1.1c1.3,0,2.4,0.4,3.3,1.3c0.8,0.9,1.3,2.1,1.3,3.6
			c0,1.2-0.2,2.2-0.6,2.9c-0.4,0.7-0.9,1.3-1.6,1.7c-0.7,0.4-1.5,0.6-2.3,0.6c-1.4,0-2.4-0.4-3.3-1.3
			C391.3,698.9,390.9,697.6,390.9,696z M392.6,696c0,1.2,0.3,2.2,0.8,2.8c0.5,0.6,1.2,0.9,2,0.9c0.8,0,1.5-0.3,2-0.9
			c0.5-0.6,0.8-1.6,0.8-2.8c0-1.2-0.3-2.1-0.8-2.7c-0.5-0.6-1.2-0.9-2-0.9c-0.8,0-1.5,0.3-2,0.9C392.9,693.9,392.6,694.8,392.6,696z
			 M403.7,700.9l-3-9.7h1.7l1.5,5.6l0.6,2.1c0-0.1,0.2-0.8,0.5-2l1.5-5.7h1.7l1.4,5.6l0.5,1.8l0.6-1.9l1.7-5.6h1.6l-3,9.7h-1.7
			l-1.5-5.8l-0.4-1.6l-2,7.4H403.7z M424.2,699.4l0.2,1.5c-0.5,0.1-0.9,0.1-1.2,0.1c-0.6,0-1.1-0.1-1.4-0.3
			c-0.3-0.2-0.6-0.4-0.7-0.7c-0.1-0.3-0.2-1-0.2-1.9v-5.6h-1.2v-1.3h1.2v-2.4l1.6-1v3.4h1.7v1.3h-1.7v5.7c0,0.5,0,0.8,0.1,0.9
			c0.1,0.1,0.2,0.2,0.3,0.3c0.1,0.1,0.3,0.1,0.6,0.1C423.6,699.5,423.8,699.4,424.2,699.4z M425.8,689.4v-1.9h1.6v1.9H425.8z
			 M425.8,700.9v-9.7h1.6v9.7H425.8z M436.2,697.3l1.6,0.2c-0.2,1.1-0.6,2-1.4,2.6c-0.7,0.6-1.6,0.9-2.7,0.9c-1.3,0-2.4-0.4-3.2-1.3
			c-0.8-0.9-1.2-2.1-1.2-3.7c0-1.1,0.2-2,0.5-2.8c0.3-0.8,0.9-1.4,1.6-1.8c0.7-0.4,1.5-0.6,2.3-0.6c1.1,0,1.9,0.3,2.6,0.8
			c0.7,0.5,1.1,1.3,1.3,2.3l-1.6,0.2c-0.2-0.6-0.4-1.1-0.8-1.5c-0.4-0.3-0.8-0.5-1.4-0.5c-0.8,0-1.5,0.3-2,0.9
			c-0.5,0.6-0.8,1.5-0.8,2.8c0,1.3,0.2,2.2,0.8,2.8c0.5,0.6,1.2,0.9,2,0.9c0.6,0,1.2-0.2,1.6-0.6
			C435.8,698.7,436.1,698.1,436.2,697.3z M439.2,700.9v-13.4h1.6v7.6l3.9-3.9h2.1l-3.7,3.6l4.1,6.1h-2l-3.2-5l-1.2,1.1v3.8H439.2z
			 M455.2,697.7l1.7,0.2c-0.3,1-0.8,1.8-1.5,2.3c-0.7,0.5-1.6,0.8-2.8,0.8c-1.4,0-2.5-0.4-3.4-1.3c-0.8-0.9-1.2-2.1-1.2-3.7
			c0-1.6,0.4-2.9,1.2-3.8c0.8-0.9,1.9-1.3,3.3-1.3c1.3,0,2.3,0.4,3.2,1.3c0.8,0.9,1.2,2.1,1.2,3.7c0,0.1,0,0.2,0,0.4h-7.2
			c0.1,1.1,0.4,1.9,0.9,2.5c0.5,0.6,1.2,0.8,2,0.8c0.6,0,1.1-0.2,1.5-0.5C454.6,698.9,454.9,698.4,455.2,697.7z M449.8,695.1h5.4
			c-0.1-0.8-0.3-1.4-0.6-1.8c-0.5-0.6-1.2-1-2-1c-0.8,0-1.4,0.3-1.9,0.8C450.1,693.6,449.8,694.2,449.8,695.1z M462.5,699.4l0.2,1.5
			c-0.5,0.1-0.9,0.1-1.2,0.1c-0.6,0-1.1-0.1-1.4-0.3c-0.3-0.2-0.6-0.4-0.7-0.7c-0.1-0.3-0.2-1-0.2-1.9v-5.6H458v-1.3h1.2v-2.4l1.6-1
			v3.4h1.7v1.3h-1.7v5.7c0,0.5,0,0.8,0.1,0.9c0.1,0.1,0.2,0.2,0.3,0.3c0.1,0.1,0.3,0.1,0.6,0.1C462,699.5,462.2,699.4,462.5,699.4z
			 M469.3,689.4v-1.9h1.6v1.9H469.3z M469.3,700.9v-9.7h1.6v9.7H469.3z M473.4,700.9v-9.7h1.5v1.4c0.7-1.1,1.7-1.6,3.1-1.6
			c0.6,0,1.1,0.1,1.6,0.3c0.5,0.2,0.9,0.5,1.1,0.8c0.2,0.3,0.4,0.7,0.5,1.2c0.1,0.3,0.1,0.8,0.1,1.6v6h-1.6V695
			c0-0.7-0.1-1.2-0.2-1.5c-0.1-0.3-0.3-0.6-0.7-0.8c-0.3-0.2-0.7-0.3-1.1-0.3c-0.7,0-1.3,0.2-1.8,0.7c-0.5,0.4-0.8,1.3-0.8,2.5v5.3
			H473.4z M483.2,698l1.6-0.2c0.1,0.6,0.3,1.1,0.8,1.5c0.4,0.3,1,0.5,1.8,0.5s1.3-0.2,1.7-0.5c0.4-0.3,0.5-0.7,0.5-1.1
			c0-0.4-0.2-0.7-0.5-0.9c-0.2-0.1-0.8-0.3-1.7-0.5c-1.2-0.3-2-0.6-2.5-0.8c-0.5-0.2-0.8-0.5-1-0.9c-0.2-0.4-0.4-0.8-0.4-1.3
			c0-0.4,0.1-0.8,0.3-1.2c0.2-0.4,0.5-0.7,0.8-0.9c0.2-0.2,0.6-0.3,1-0.5c0.4-0.1,0.9-0.2,1.4-0.2c0.8,0,1.4,0.1,2,0.3
			c0.6,0.2,1,0.5,1.3,0.9c0.3,0.4,0.5,0.9,0.6,1.5l-1.6,0.2c-0.1-0.5-0.3-0.9-0.6-1.2c-0.3-0.3-0.8-0.4-1.5-0.4
			c-0.8,0-1.3,0.1-1.6,0.4c-0.3,0.2-0.5,0.5-0.5,0.9c0,0.2,0.1,0.4,0.2,0.6c0.1,0.2,0.3,0.3,0.6,0.4c0.2,0.1,0.6,0.2,1.4,0.4
			c1.2,0.3,2,0.6,2.4,0.8c0.5,0.2,0.8,0.5,1.1,0.9c0.3,0.4,0.4,0.8,0.4,1.4c0,0.6-0.2,1.1-0.5,1.5c-0.3,0.5-0.8,0.9-1.4,1.1
			c-0.6,0.3-1.3,0.4-2,0.4c-1.2,0-2.2-0.3-2.9-0.8C483.8,699.8,483.3,699,483.2,698z M496.7,699.4l0.2,1.5c-0.5,0.1-0.9,0.1-1.2,0.1
			c-0.6,0-1.1-0.1-1.4-0.3c-0.3-0.2-0.6-0.4-0.7-0.7c-0.1-0.3-0.2-1-0.2-1.9v-5.6h-1.2v-1.3h1.2v-2.4l1.6-1v3.4h1.7v1.3h-1.7v5.7
			c0,0.5,0,0.8,0.1,0.9c0.1,0.1,0.2,0.2,0.3,0.3c0.1,0.1,0.3,0.1,0.6,0.1C496.2,699.5,496.4,699.4,496.7,699.4z M505,697.7l1.7,0.2
			c-0.3,1-0.8,1.8-1.5,2.3c-0.7,0.5-1.6,0.8-2.8,0.8c-1.4,0-2.5-0.4-3.4-1.3c-0.8-0.9-1.2-2.1-1.2-3.7c0-1.6,0.4-2.9,1.2-3.8
			c0.8-0.9,1.9-1.3,3.3-1.3c1.3,0,2.3,0.4,3.2,1.3c0.8,0.9,1.2,2.1,1.2,3.7c0,0.1,0,0.2,0,0.4h-7.2c0.1,1.1,0.4,1.9,0.9,2.5
			c0.5,0.6,1.2,0.8,2,0.8c0.6,0,1.1-0.2,1.5-0.5C504.4,698.9,504.7,698.4,505,697.7z M499.6,695.1h5.4c-0.1-0.8-0.3-1.4-0.6-1.8
			c-0.5-0.6-1.2-1-2-1c-0.8,0-1.4,0.3-1.9,0.8C499.9,693.6,499.6,694.2,499.6,695.1z M515,699.7c-0.6,0.5-1.2,0.9-1.8,1.1
			c-0.6,0.2-1.2,0.3-1.8,0.3c-1.1,0-1.9-0.3-2.5-0.8c-0.6-0.5-0.9-1.2-0.9-2c0-0.5,0.1-0.9,0.3-1.3c0.2-0.4,0.5-0.7,0.8-0.9
			c0.4-0.2,0.8-0.4,1.2-0.5c0.3-0.1,0.8-0.2,1.5-0.2c1.3-0.2,2.3-0.3,2.9-0.6c0-0.2,0-0.4,0-0.4c0-0.7-0.2-1.1-0.5-1.4
			c-0.4-0.4-1-0.5-1.9-0.5c-0.8,0-1.3,0.1-1.7,0.4c-0.4,0.3-0.6,0.7-0.8,1.4l-1.6-0.2c0.1-0.7,0.4-1.2,0.7-1.6
			c0.3-0.4,0.8-0.8,1.5-1c0.6-0.2,1.4-0.3,2.2-0.3c0.8,0,1.5,0.1,2,0.3c0.5,0.2,0.9,0.4,1.1,0.7c0.2,0.3,0.4,0.7,0.5,1.1
			c0.1,0.3,0.1,0.8,0.1,1.5v2.2c0,1.5,0,2.5,0.1,2.9c0.1,0.4,0.2,0.8,0.4,1.2h-1.7C515.2,700.5,515.1,700.1,515,699.7z M514.9,696
			c-0.6,0.2-1.5,0.5-2.7,0.6c-0.7,0.1-1.2,0.2-1.4,0.3s-0.5,0.3-0.7,0.5c-0.1,0.2-0.2,0.5-0.2,0.8c0,0.4,0.2,0.8,0.5,1.1
			c0.3,0.3,0.8,0.4,1.5,0.4c0.6,0,1.2-0.1,1.7-0.4c0.5-0.3,0.9-0.7,1.1-1.1c0.2-0.4,0.3-0.9,0.3-1.6V696z M525.3,700.9v-1.2
			c-0.6,1-1.5,1.4-2.7,1.4c-0.8,0-1.5-0.2-2.1-0.6c-0.6-0.4-1.1-1-1.5-1.8c-0.4-0.8-0.5-1.6-0.5-2.6c0-1,0.2-1.8,0.5-2.6
			c0.3-0.8,0.8-1.4,1.4-1.8c0.6-0.4,1.4-0.6,2.2-0.6c0.6,0,1.1,0.1,1.5,0.4c0.5,0.2,0.8,0.6,1.1,1v-4.8h1.6v13.4H525.3z M520.2,696
			c0,1.2,0.3,2.2,0.8,2.8c0.5,0.6,1.1,0.9,1.8,0.9c0.7,0,1.3-0.3,1.8-0.9c0.5-0.6,0.8-1.5,0.8-2.7c0-1.3-0.3-2.3-0.8-2.9
			c-0.5-0.6-1.1-0.9-1.9-0.9c-0.7,0-1.3,0.3-1.8,0.9S520.2,694.7,520.2,696z M530.5,704.8h-1.2c1.8-2.9,2.7-5.8,2.7-8.8
			c0-1.1-0.1-2.3-0.4-3.4c-0.2-0.9-0.5-1.8-0.9-2.6c-0.2-0.6-0.7-1.5-1.5-2.7h1.2c1.1,1.5,2,3.1,2.5,4.6c0.5,1.3,0.7,2.7,0.7,4.1
			c0,1.6-0.3,3.2-0.9,4.8S531.4,703.6,530.5,704.8z"/>
		<path class="st5" d="M793.8,667.9H960V720H793.8V667.9z"/>
		<path class="st3" d="M793.8,667.9H960V720H793.8V667.9z"/>
		<path d="M804.2,700.9v-13.4h9.7v1.6H806v4.1h7.4v1.6H806v4.5h8.2v1.6H804.2z M816.1,696.6l1.7-0.1c0.1,0.7,0.3,1.2,0.5,1.6
			c0.3,0.4,0.7,0.8,1.3,1c0.6,0.3,1.3,0.4,2.1,0.4c0.7,0,1.3-0.1,1.8-0.3c0.5-0.2,0.9-0.5,1.2-0.8c0.2-0.4,0.4-0.7,0.4-1.2
			c0-0.4-0.1-0.8-0.4-1.1c-0.2-0.3-0.6-0.6-1.2-0.8c-0.4-0.1-1.2-0.3-2.4-0.6c-1.2-0.3-2.1-0.6-2.6-0.8c-0.6-0.3-1.1-0.7-1.4-1.2
			c-0.3-0.5-0.5-1.1-0.5-1.7c0-0.7,0.2-1.3,0.6-1.9c0.4-0.6,0.9-1,1.7-1.3c0.7-0.3,1.6-0.5,2.5-0.5c1,0,1.9,0.2,2.6,0.5
			c0.8,0.3,1.3,0.8,1.8,1.4c0.4,0.6,0.6,1.3,0.7,2.1l-1.7,0.1c-0.1-0.8-0.4-1.5-0.9-1.9c-0.5-0.4-1.3-0.7-2.3-0.7
			c-1.1,0-1.9,0.2-2.3,0.6c-0.5,0.4-0.7,0.9-0.7,1.4c0,0.5,0.2,0.9,0.5,1.2c0.3,0.3,1.2,0.6,2.7,1c1.4,0.3,2.4,0.6,3,0.8
			c0.8,0.4,1.4,0.8,1.7,1.4c0.4,0.6,0.6,1.2,0.6,1.9c0,0.7-0.2,1.4-0.6,2c-0.4,0.6-1,1.1-1.8,1.5c-0.8,0.3-1.6,0.5-2.6,0.5
			c-1.2,0-2.2-0.2-3-0.5c-0.8-0.4-1.5-0.9-1.9-1.6C816.3,698.3,816.1,697.5,816.1,696.6z M829.1,700.9v-13.4h9.7v1.6h-7.9v4.1h7.4
			v1.6h-7.4v4.5h8.2v1.6H829.1z M851.1,696.2l1.8,0.5c-0.4,1.4-1,2.6-2,3.3c-1,0.8-2.1,1.1-3.5,1.1c-1.4,0-2.6-0.3-3.5-0.9
			c-0.9-0.6-1.6-1.4-2.1-2.5c-0.5-1.1-0.7-2.3-0.7-3.6c0-1.4,0.3-2.6,0.8-3.6c0.5-1,1.3-1.8,2.3-2.4c1-0.5,2.1-0.8,3.2-0.8
			c1.3,0,2.5,0.3,3.4,1c0.9,0.7,1.6,1.6,1.9,2.9l-1.7,0.4c-0.3-1-0.8-1.7-1.4-2.1c-0.6-0.4-1.3-0.7-2.2-0.7c-1,0-1.9,0.2-2.6,0.7
			c-0.7,0.5-1.2,1.2-1.5,2c-0.3,0.8-0.4,1.7-0.4,2.6c0,1.1,0.2,2.1,0.5,3s0.8,1.5,1.5,1.9c0.7,0.4,1.5,0.6,2.3,0.6
			c1,0,1.8-0.3,2.5-0.9C850.4,698.1,850.8,697.3,851.1,696.2z M864.5,696.2l1.8,0.5c-0.4,1.4-1,2.6-2,3.3c-1,0.8-2.1,1.1-3.5,1.1
			c-1.4,0-2.6-0.3-3.5-0.9c-0.9-0.6-1.6-1.4-2.1-2.5c-0.5-1.1-0.7-2.3-0.7-3.6c0-1.4,0.3-2.6,0.8-3.6c0.5-1,1.3-1.8,2.3-2.4
			c1-0.5,2.1-0.8,3.2-0.8c1.3,0,2.5,0.3,3.4,1c0.9,0.7,1.6,1.6,1.9,2.9l-1.7,0.4c-0.3-1-0.8-1.7-1.4-2.1c-0.6-0.4-1.3-0.7-2.2-0.7
			c-1,0-1.9,0.2-2.6,0.7c-0.7,0.5-1.2,1.2-1.5,2c-0.3,0.8-0.4,1.7-0.4,2.6c0,1.1,0.2,2.1,0.5,3c0.3,0.8,0.8,1.5,1.5,1.9
			c0.7,0.4,1.5,0.6,2.3,0.6c1,0,1.8-0.3,2.5-0.9C863.8,698.1,864.3,697.3,864.5,696.2z M873.5,700.9v-9.7h1.5v1.4
			c0.7-1.1,1.7-1.6,3.1-1.6c0.6,0,1.1,0.1,1.6,0.3c0.5,0.2,0.9,0.5,1.1,0.8c0.2,0.3,0.4,0.7,0.5,1.2c0.1,0.3,0.1,0.8,0.1,1.6v6h-1.6
			V695c0-0.7-0.1-1.2-0.2-1.5c-0.1-0.3-0.3-0.6-0.7-0.8c-0.3-0.2-0.7-0.3-1.1-0.3c-0.7,0-1.3,0.2-1.8,0.7c-0.5,0.4-0.8,1.3-0.8,2.5
			v5.3H873.5z M890.5,697.7l1.7,0.2c-0.3,1-0.8,1.8-1.5,2.3c-0.7,0.5-1.6,0.8-2.8,0.8c-1.4,0-2.5-0.4-3.4-1.3
			c-0.8-0.9-1.2-2.1-1.2-3.7c0-1.6,0.4-2.9,1.2-3.8c0.8-0.9,1.9-1.3,3.3-1.3c1.3,0,2.3,0.4,3.2,1.3c0.8,0.9,1.2,2.1,1.2,3.7
			c0,0.1,0,0.2,0,0.4H885c0.1,1.1,0.4,1.9,0.9,2.5c0.5,0.6,1.2,0.8,2,0.8c0.6,0,1.1-0.2,1.5-0.5
			C889.9,698.9,890.2,698.4,890.5,697.7z M885.1,695.1h5.4c-0.1-0.8-0.3-1.4-0.6-1.8c-0.5-0.6-1.2-1-2-1c-0.8,0-1.4,0.3-1.9,0.8
			C885.4,693.6,885.1,694.2,885.1,695.1z M900.8,697.7l1.7,0.2c-0.3,1-0.8,1.8-1.5,2.3c-0.7,0.5-1.6,0.8-2.8,0.8
			c-1.4,0-2.5-0.4-3.4-1.3c-0.8-0.9-1.2-2.1-1.2-3.7c0-1.6,0.4-2.9,1.2-3.8c0.8-0.9,1.9-1.3,3.3-1.3c1.3,0,2.3,0.4,3.2,1.3
			c0.8,0.9,1.2,2.1,1.2,3.7c0,0.1,0,0.2,0,0.4h-7.2c0.1,1.1,0.4,1.9,0.9,2.5c0.5,0.6,1.2,0.8,2,0.8c0.6,0,1.1-0.2,1.5-0.5
			C900.2,698.9,900.6,698.4,900.8,697.7z M895.4,695.1h5.4c-0.1-0.8-0.3-1.4-0.6-1.8c-0.5-0.6-1.2-1-2-1c-0.8,0-1.4,0.3-1.9,0.8
			C895.8,693.6,895.5,694.2,895.4,695.1z M910.9,700.9v-1.2c-0.6,1-1.5,1.4-2.7,1.4c-0.8,0-1.5-0.2-2.1-0.6c-0.6-0.4-1.1-1-1.5-1.8
			c-0.4-0.8-0.5-1.6-0.5-2.6c0-1,0.2-1.8,0.5-2.6c0.3-0.8,0.8-1.4,1.4-1.8c0.6-0.4,1.4-0.6,2.2-0.6c0.6,0,1.1,0.1,1.5,0.4
			c0.5,0.2,0.8,0.6,1.1,1v-4.8h1.6v13.4H910.9z M905.7,696c0,1.2,0.3,2.2,0.8,2.8c0.5,0.6,1.1,0.9,1.8,0.9c0.7,0,1.3-0.3,1.8-0.9
			c0.5-0.6,0.8-1.5,0.8-2.7c0-1.3-0.3-2.3-0.8-2.9c-0.5-0.6-1.1-0.9-1.9-0.9c-0.7,0-1.3,0.3-1.8,0.9S905.7,694.7,905.7,696z
			 M921.6,697.7l1.7,0.2c-0.3,1-0.8,1.8-1.5,2.3c-0.7,0.5-1.6,0.8-2.8,0.8c-1.4,0-2.5-0.4-3.4-1.3c-0.8-0.9-1.2-2.1-1.2-3.7
			c0-1.6,0.4-2.9,1.2-3.8c0.8-0.9,1.9-1.3,3.3-1.3c1.3,0,2.3,0.4,3.2,1.3c0.8,0.9,1.2,2.1,1.2,3.7c0,0.1,0,0.2,0,0.4h-7.2
			c0.1,1.1,0.4,1.9,0.9,2.5c0.5,0.6,1.2,0.8,2,0.8c0.6,0,1.1-0.2,1.5-0.5C921,698.9,921.3,698.4,921.6,697.7z M916.2,695.1h5.4
			c-0.1-0.8-0.3-1.4-0.6-1.8c-0.5-0.6-1.2-1-2-1c-0.8,0-1.4,0.3-1.9,0.8C916.5,693.6,916.2,694.2,916.2,695.1z M931.6,700.9v-1.2
			c-0.6,1-1.5,1.4-2.7,1.4c-0.8,0-1.5-0.2-2.1-0.6c-0.6-0.4-1.1-1-1.5-1.8c-0.4-0.8-0.5-1.6-0.5-2.6c0-1,0.2-1.8,0.5-2.6
			c0.3-0.8,0.8-1.4,1.4-1.8c0.6-0.4,1.4-0.6,2.2-0.6c0.6,0,1.1,0.1,1.5,0.4c0.5,0.2,0.8,0.6,1.1,1v-4.8h1.6v13.4H931.6z M926.4,696
			c0,1.2,0.3,2.2,0.8,2.8c0.5,0.6,1.1,0.9,1.8,0.9c0.7,0,1.3-0.3,1.8-0.9c0.5-0.6,0.8-1.5,0.8-2.7c0-1.3-0.3-2.3-0.8-2.9
			c-0.5-0.6-1.1-0.9-1.9-0.9c-0.7,0-1.3,0.3-1.8,0.9S926.4,694.7,926.4,696z"/>
		<path class="st2" d="M557.4,667.9h236.4V720H557.4V667.9z"/>
		<path class="st3" d="M557.4,667.9h236.4V720H557.4V667.9z"/>
		<path d="M577.3,696.2l1.8,0.5c-0.4,1.4-1,2.6-2,3.3c-1,0.8-2.1,1.1-3.5,1.1c-1.4,0-2.6-0.3-3.5-0.9c-0.9-0.6-1.6-1.4-2.1-2.5
			c-0.5-1.1-0.7-2.3-0.7-3.6c0-1.4,0.3-2.6,0.8-3.6c0.5-1,1.3-1.8,2.3-2.4c1-0.5,2.1-0.8,3.2-0.8c1.3,0,2.5,0.3,3.4,1
			c0.9,0.7,1.6,1.6,1.9,2.9l-1.7,0.4c-0.3-1-0.8-1.7-1.4-2.1c-0.6-0.4-1.3-0.7-2.2-0.7c-1,0-1.9,0.2-2.6,0.7c-0.7,0.5-1.2,1.2-1.5,2
			c-0.3,0.8-0.4,1.7-0.4,2.6c0,1.1,0.2,2.1,0.5,3c0.3,0.8,0.8,1.5,1.5,1.9c0.7,0.4,1.5,0.6,2.3,0.6c1,0,1.8-0.3,2.5-0.9
			C576.6,698.1,577.1,697.3,577.3,696.2z M581.1,700.9v-13.4h1.6v4.8c0.8-0.9,1.7-1.3,2.9-1.3c0.7,0,1.3,0.1,1.9,0.4
			c0.5,0.3,0.9,0.7,1.1,1.2s0.3,1.2,0.3,2.2v6.1h-1.6v-6.1c0-0.8-0.2-1.4-0.5-1.8s-0.9-0.6-1.5-0.6c-0.5,0-0.9,0.1-1.4,0.4
			c-0.4,0.2-0.7,0.6-0.9,1c-0.2,0.4-0.3,1-0.3,1.8v5.3H581.1z M598.1,697.7l1.7,0.2c-0.3,1-0.8,1.8-1.5,2.3
			c-0.7,0.5-1.6,0.8-2.8,0.8c-1.4,0-2.5-0.4-3.4-1.3c-0.8-0.9-1.2-2.1-1.2-3.7c0-1.6,0.4-2.9,1.2-3.8c0.8-0.9,1.9-1.3,3.3-1.3
			c1.3,0,2.3,0.4,3.2,1.3c0.8,0.9,1.2,2.1,1.2,3.7c0,0.1,0,0.2,0,0.4h-7.2c0.1,1.1,0.4,1.9,0.9,2.5c0.5,0.6,1.2,0.8,2,0.8
			c0.6,0,1.1-0.2,1.5-0.5C597.5,698.9,597.8,698.4,598.1,697.7z M592.7,695.1h5.4c-0.1-0.8-0.3-1.4-0.6-1.8c-0.5-0.6-1.2-1-2-1
			c-0.8,0-1.4,0.3-1.9,0.8C593,693.6,592.7,694.2,592.7,695.1z M608.1,697.3l1.6,0.2c-0.2,1.1-0.6,2-1.4,2.6
			c-0.7,0.6-1.6,0.9-2.7,0.9c-1.3,0-2.4-0.4-3.2-1.3c-0.8-0.9-1.2-2.1-1.2-3.7c0-1.1,0.2-2,0.5-2.8s0.9-1.4,1.6-1.8
			c0.7-0.4,1.5-0.6,2.3-0.6c1.1,0,1.9,0.3,2.6,0.8s1.1,1.3,1.3,2.3l-1.6,0.2c-0.2-0.6-0.4-1.1-0.8-1.5c-0.4-0.3-0.8-0.5-1.4-0.5
			c-0.8,0-1.5,0.3-2,0.9s-0.8,1.5-0.8,2.8c0,1.3,0.2,2.2,0.8,2.8c0.5,0.6,1.2,0.9,2,0.9c0.6,0,1.2-0.2,1.6-0.6
			C607.7,698.7,608,698.1,608.1,697.3z M611.1,700.9v-13.4h1.6v7.6l3.9-3.9h2.1l-3.7,3.6l4.1,6.1h-2l-3.2-5l-1.2,1.1v3.8H611.1z
			 M625.7,689.4v-1.9h1.6v1.9H625.7z M625.7,700.9v-9.7h1.6v9.7H625.7z M630.2,700.9v-8.4h-1.5v-1.3h1.5v-1c0-0.6,0.1-1.1,0.2-1.5
			c0.2-0.4,0.4-0.8,0.8-1c0.4-0.3,1-0.4,1.7-0.4c0.5,0,1,0.1,1.5,0.2l-0.2,1.4c-0.3-0.1-0.7-0.1-1-0.1c-0.5,0-0.9,0.1-1.1,0.3
			c-0.2,0.2-0.3,0.6-0.3,1.2v0.9h1.9v1.3h-1.9v8.4H630.2z M640.4,700.9v-13.4h9.7v1.6h-7.9v4.1h7.4v1.6h-7.4v4.5h8.2v1.6H640.4z
			 M652.2,696.6l1.7-0.1c0.1,0.7,0.3,1.2,0.5,1.6c0.3,0.4,0.7,0.8,1.3,1c0.6,0.3,1.3,0.4,2.1,0.4c0.7,0,1.3-0.1,1.8-0.3
			c0.5-0.2,0.9-0.5,1.2-0.8c0.2-0.4,0.4-0.7,0.4-1.2c0-0.4-0.1-0.8-0.4-1.1c-0.2-0.3-0.6-0.6-1.2-0.8c-0.4-0.1-1.2-0.3-2.4-0.6
			c-1.2-0.3-2.1-0.6-2.6-0.8c-0.6-0.3-1.1-0.7-1.4-1.2c-0.3-0.5-0.5-1.1-0.5-1.7c0-0.7,0.2-1.3,0.6-1.9c0.4-0.6,0.9-1,1.7-1.3
			c0.7-0.3,1.6-0.5,2.5-0.5c1,0,1.9,0.2,2.6,0.5c0.8,0.3,1.3,0.8,1.8,1.4c0.4,0.6,0.6,1.3,0.7,2.1l-1.7,0.1
			c-0.1-0.8-0.4-1.5-0.9-1.9c-0.5-0.4-1.3-0.7-2.3-0.7c-1.1,0-1.9,0.2-2.3,0.6c-0.5,0.4-0.7,0.9-0.7,1.4c0,0.5,0.2,0.9,0.5,1.2
			c0.3,0.3,1.2,0.6,2.7,1c1.4,0.3,2.4,0.6,3,0.8c0.8,0.4,1.4,0.8,1.7,1.4c0.4,0.6,0.6,1.2,0.6,1.9c0,0.7-0.2,1.4-0.6,2
			c-0.4,0.6-1,1.1-1.8,1.5c-0.8,0.3-1.6,0.5-2.6,0.5c-1.2,0-2.2-0.2-3-0.5c-0.8-0.4-1.5-0.9-1.9-1.6
			C652.5,698.3,652.2,697.5,652.2,696.6z M665.3,700.9v-13.4h9.7v1.6h-7.9v4.1h7.4v1.6h-7.4v4.5h8.2v1.6H665.3z M687.2,696.2
			l1.8,0.5c-0.4,1.4-1,2.6-2,3.3c-1,0.8-2.1,1.1-3.5,1.1c-1.4,0-2.6-0.3-3.5-0.9c-0.9-0.6-1.6-1.4-2.1-2.5c-0.5-1.1-0.7-2.3-0.7-3.6
			c0-1.4,0.3-2.6,0.8-3.6c0.5-1,1.3-1.8,2.3-2.4c1-0.5,2.1-0.8,3.2-0.8c1.3,0,2.5,0.3,3.4,1c0.9,0.7,1.6,1.6,1.9,2.9l-1.7,0.4
			c-0.3-1-0.8-1.7-1.4-2.1c-0.6-0.4-1.3-0.7-2.2-0.7c-1,0-1.9,0.2-2.6,0.7c-0.7,0.5-1.2,1.2-1.5,2c-0.3,0.8-0.4,1.7-0.4,2.6
			c0,1.1,0.2,2.1,0.5,3c0.3,0.8,0.8,1.5,1.5,1.9c0.7,0.4,1.5,0.6,2.3,0.6c1,0,1.8-0.3,2.5-0.9C686.5,698.1,687,697.3,687.2,696.2z
			 M700.7,696.2l1.8,0.5c-0.4,1.4-1,2.6-2,3.3c-1,0.8-2.1,1.1-3.5,1.1c-1.4,0-2.6-0.3-3.5-0.9c-0.9-0.6-1.6-1.4-2.1-2.5
			c-0.5-1.1-0.7-2.3-0.7-3.6c0-1.4,0.3-2.6,0.8-3.6c0.5-1,1.3-1.8,2.3-2.4c1-0.5,2.1-0.8,3.2-0.8c1.3,0,2.5,0.3,3.4,1
			c0.9,0.7,1.6,1.6,1.9,2.9l-1.7,0.4c-0.3-1-0.8-1.7-1.4-2.1c-0.6-0.4-1.3-0.7-2.2-0.7c-1,0-1.9,0.2-2.6,0.7c-0.7,0.5-1.2,1.2-1.5,2
			c-0.3,0.8-0.4,1.7-0.4,2.6c0,1.1,0.2,2.1,0.5,3c0.3,0.8,0.8,1.5,1.5,1.9c0.7,0.4,1.5,0.6,2.3,0.6c1,0,1.8-0.3,2.5-0.9
			C700,698.1,700.5,697.3,700.7,696.2z M709.6,700.9v-9.7h1.5v1.4c0.7-1.1,1.7-1.6,3.1-1.6c0.6,0,1.1,0.1,1.6,0.3
			c0.5,0.2,0.9,0.5,1.1,0.8c0.2,0.3,0.4,0.7,0.5,1.2c0.1,0.3,0.1,0.8,0.1,1.6v6h-1.6V695c0-0.7-0.1-1.2-0.2-1.5
			c-0.1-0.3-0.3-0.6-0.7-0.8c-0.3-0.2-0.7-0.3-1.1-0.3c-0.7,0-1.3,0.2-1.8,0.7c-0.5,0.4-0.8,1.3-0.8,2.5v5.3H709.6z M726.6,697.7
			l1.7,0.2c-0.3,1-0.8,1.8-1.5,2.3c-0.7,0.5-1.6,0.8-2.8,0.8c-1.4,0-2.5-0.4-3.4-1.3c-0.8-0.9-1.2-2.1-1.2-3.7
			c0-1.6,0.4-2.9,1.2-3.8c0.8-0.9,1.9-1.3,3.3-1.3c1.3,0,2.3,0.4,3.2,1.3c0.8,0.9,1.2,2.1,1.2,3.7c0,0.1,0,0.2,0,0.4h-7.2
			c0.1,1.1,0.4,1.9,0.9,2.5c0.5,0.6,1.2,0.8,2,0.8c0.6,0,1.1-0.2,1.5-0.5C726,698.9,726.4,698.4,726.6,697.7z M721.2,695.1h5.4
			c-0.1-0.8-0.3-1.4-0.6-1.8c-0.5-0.6-1.2-1-2-1c-0.8,0-1.4,0.3-1.9,0.8C721.6,693.6,721.3,694.2,721.2,695.1z M737,697.7l1.7,0.2
			c-0.3,1-0.8,1.8-1.5,2.3c-0.7,0.5-1.6,0.8-2.8,0.8c-1.4,0-2.5-0.4-3.4-1.3c-0.8-0.9-1.2-2.1-1.2-3.7c0-1.6,0.4-2.9,1.2-3.8
			c0.8-0.9,1.9-1.3,3.3-1.3c1.3,0,2.3,0.4,3.2,1.3c0.8,0.9,1.2,2.1,1.2,3.7c0,0.1,0,0.2,0,0.4h-7.2c0.1,1.1,0.4,1.9,0.9,2.5
			c0.5,0.6,1.2,0.8,2,0.8c0.6,0,1.1-0.2,1.5-0.5C736.4,698.9,736.8,698.4,737,697.7z M731.6,695.1h5.4c-0.1-0.8-0.3-1.4-0.6-1.8
			c-0.5-0.6-1.2-1-2-1c-0.8,0-1.4,0.3-1.9,0.8C731.9,693.6,731.7,694.2,731.6,695.1z M747,700.9v-1.2c-0.6,1-1.5,1.4-2.7,1.4
			c-0.8,0-1.5-0.2-2.1-0.6c-0.6-0.4-1.1-1-1.5-1.8c-0.4-0.8-0.5-1.6-0.5-2.6c0-1,0.2-1.8,0.5-2.6c0.3-0.8,0.8-1.4,1.4-1.8
			c0.6-0.4,1.4-0.6,2.2-0.6c0.6,0,1.1,0.1,1.5,0.4c0.5,0.2,0.8,0.6,1.1,1v-4.8h1.6v13.4H747z M741.8,696c0,1.2,0.3,2.2,0.8,2.8
			c0.5,0.6,1.1,0.9,1.8,0.9c0.7,0,1.3-0.3,1.8-0.9c0.5-0.6,0.8-1.5,0.8-2.7c0-1.3-0.3-2.3-0.8-2.9c-0.5-0.6-1.1-0.9-1.9-0.9
			c-0.7,0-1.3,0.3-1.8,0.9C742.1,693.8,741.8,694.7,741.8,696z M757.8,697.7l1.7,0.2c-0.3,1-0.8,1.8-1.5,2.3
			c-0.7,0.5-1.6,0.8-2.8,0.8c-1.4,0-2.5-0.4-3.4-1.3c-0.8-0.9-1.2-2.1-1.2-3.7c0-1.6,0.4-2.9,1.2-3.8c0.8-0.9,1.9-1.3,3.3-1.3
			c1.3,0,2.3,0.4,3.2,1.3c0.8,0.9,1.2,2.1,1.2,3.7c0,0.1,0,0.2,0,0.4h-7.2c0.1,1.1,0.4,1.9,0.9,2.5c0.5,0.6,1.2,0.8,2,0.8
			c0.6,0,1.1-0.2,1.5-0.5C757.2,698.9,757.5,698.4,757.8,697.7z M752.4,695.1h5.4c-0.1-0.8-0.3-1.4-0.6-1.8c-0.5-0.6-1.2-1-2-1
			c-0.8,0-1.4,0.3-1.9,0.8C752.7,693.6,752.4,694.2,752.4,695.1z M767.8,700.9v-1.2c-0.6,1-1.5,1.4-2.7,1.4c-0.8,0-1.5-0.2-2.1-0.6
			c-0.6-0.4-1.1-1-1.5-1.8c-0.4-0.8-0.5-1.6-0.5-2.6c0-1,0.2-1.8,0.5-2.6c0.3-0.8,0.8-1.4,1.4-1.8c0.6-0.4,1.4-0.6,2.2-0.6
			c0.6,0,1.1,0.1,1.5,0.4c0.5,0.2,0.8,0.6,1.1,1v-4.8h1.6v13.4H767.8z M762.6,696c0,1.2,0.3,2.2,0.8,2.8c0.5,0.6,1.1,0.9,1.8,0.9
			c0.7,0,1.3-0.3,1.8-0.9c0.5-0.6,0.8-1.5,0.8-2.7c0-1.3-0.3-2.3-0.8-2.9c-0.5-0.6-1.1-0.9-1.9-0.9c-0.7,0-1.3,0.3-1.8,0.9
			C762.8,693.8,762.6,694.7,762.6,696z"/>
	</g>
</g>
<g>
	<text transform="matrix(1 0 0 1 767.8128 504.4731)"><tspan x="0" y="0" class="st6 st7">On-premises - </tspan><tspan x="38.5" y="21.6" class="st6 st7">VistA</tspan></text>
</g>
</svg>
